solid Default
  facet normal 2.432730e-01 -9.699578e-01 0.000000e+00
    outer loop
      vertex 3.165526e+01 1.672483e+00 1.400000e+01
      vertex 3.165526e+01 1.672483e+00 0.000000e+00
      vertex 3.227036e+01 1.826754e+00 0.000000e+00
    endloop
  endfacet
  facet normal 2.432730e-01 -9.699578e-01 0.000000e+00
    outer loop
      vertex 3.227036e+01 1.826754e+00 1.400000e+01
      vertex 3.165526e+01 1.672483e+00 1.400000e+01
      vertex 3.227036e+01 1.826754e+00 0.000000e+00
    endloop
  endfacet
  facet normal 4.756893e-01 -8.796134e-01 0.000000e+00
    outer loop
      vertex 3.282816e+01 2.128408e+00 1.400000e+01
      vertex 3.227036e+01 1.826754e+00 1.400000e+01
      vertex 3.227036e+01 1.826754e+00 0.000000e+00
    endloop
  endfacet
  facet normal 6.785279e-01 -7.345746e-01 0.000000e+00
    outer loop
      vertex 3.329398e+01 2.558691e+00 1.400000e+01
      vertex 3.282816e+01 2.128408e+00 1.400000e+01
      vertex 3.282816e+01 2.128408e+00 0.000000e+00
    endloop
  endfacet
  facet normal 4.756893e-01 -8.796134e-01 0.000000e+00
    outer loop
      vertex 3.282816e+01 2.128408e+00 1.400000e+01
      vertex 3.227036e+01 1.826754e+00 0.000000e+00
      vertex 3.282816e+01 2.128408e+00 0.000000e+00
    endloop
  endfacet
  facet normal 8.391795e-01 -5.438548e-01 0.000000e+00
    outer loop
      vertex 3.363886e+01 3.090853e+00 1.400000e+01
      vertex 3.329398e+01 2.558691e+00 1.400000e+01
      vertex 3.329398e+01 2.558691e+00 0.000000e+00
    endloop
  endfacet
  facet normal 6.785279e-01 -7.345746e-01 0.000000e+00
    outer loop
      vertex 3.329398e+01 2.558691e+00 1.400000e+01
      vertex 3.282816e+01 2.128408e+00 0.000000e+00
      vertex 3.329398e+01 2.558691e+00 0.000000e+00
    endloop
  endfacet
  facet normal 9.476460e-01 -3.193229e-01 0.000000e+00
    outer loop
      vertex 3.384136e+01 3.691793e+00 1.400000e+01
      vertex 3.363886e+01 3.090853e+00 1.400000e+01
      vertex 3.363886e+01 3.090853e+00 0.000000e+00
    endloop
  endfacet
  facet normal 8.391795e-01 -5.438548e-01 0.000000e+00
    outer loop
      vertex 3.363886e+01 3.090853e+00 1.400000e+01
      vertex 3.329398e+01 2.558691e+00 0.000000e+00
      vertex 3.363886e+01 3.090853e+00 0.000000e+00
    endloop
  endfacet
  facet normal 9.971884e-01 -7.493500e-02 0.000000e+00
    outer loop
      vertex 3.388888e+01 4.324156e+00 1.400000e+01
      vertex 3.384136e+01 3.691793e+00 1.400000e+01
      vertex 3.384136e+01 3.691793e+00 0.000000e+00
    endloop
  endfacet
  facet normal 9.476460e-01 -3.193229e-01 0.000000e+00
    outer loop
      vertex 3.384136e+01 3.691793e+00 1.400000e+01
      vertex 3.363886e+01 3.090853e+00 0.000000e+00
      vertex 3.384136e+01 3.691793e+00 0.000000e+00
    endloop
  endfacet
  facet normal 9.971884e-01 -7.493500e-02 0.000000e+00
    outer loop
      vertex 3.388888e+01 4.324156e+00 1.400000e+01
      vertex 3.384136e+01 3.691793e+00 0.000000e+00
      vertex 3.388888e+01 4.324156e+00 0.000000e+00
    endloop
  endfacet
  facet normal 9.847245e-01 1.741196e-01 0.000000e+00
    outer loop
      vertex 3.377846e+01 4.948610e+00 1.400000e+01
      vertex 3.388888e+01 4.324156e+00 1.400000e+01
      vertex 3.377846e+01 4.948610e+00 0.000000e+00
    endloop
  endfacet
  facet normal 9.110305e-01 4.123390e-01 0.000000e+00
    outer loop
      vertex 3.351698e+01 5.526335e+00 1.400000e+01
      vertex 3.377846e+01 4.948610e+00 1.400000e+01
      vertex 3.377846e+01 4.948610e+00 0.000000e+00
    endloop
  endfacet
  facet normal 9.847245e-01 1.741196e-01 0.000000e+00
    outer loop
      vertex 3.388888e+01 4.324156e+00 1.400000e+01
      vertex 3.388888e+01 4.324156e+00 0.000000e+00
      vertex 3.377846e+01 4.948610e+00 0.000000e+00
    endloop
  endfacet
  facet normal 7.806875e-01 6.249217e-01 0.000000e+00
    outer loop
      vertex 3.312069e+01 6.021402e+00 1.400000e+01
      vertex 3.351698e+01 5.526335e+00 1.400000e+01
      vertex 3.351698e+01 5.526335e+00 0.000000e+00
    endloop
  endfacet
  facet normal 9.110305e-01 4.123390e-01 0.000000e+00
    outer loop
      vertex 3.351698e+01 5.526335e+00 1.400000e+01
      vertex 3.377846e+01 4.948610e+00 0.000000e+00
      vertex 3.351698e+01 5.526335e+00 0.000000e+00
    endloop
  endfacet
  facet normal 7.806875e-01 6.249217e-01 0.000000e+00
    outer loop
      vertex 3.312069e+01 6.021402e+00 1.400000e+01
      vertex 3.351698e+01 5.526335e+00 0.000000e+00
      vertex 3.312069e+01 6.021402e+00 0.000000e+00
    endloop
  endfacet
  facet normal 6.017973e-01 7.986488e-01 0.000000e+00
    outer loop
      vertex 3.261423e+01 6.403028e+00 1.400000e+01
      vertex 3.312069e+01 6.021402e+00 1.400000e+01
      vertex 3.261423e+01 6.403028e+00 0.000000e+00
    endloop
  endfacet
  facet normal 3.854862e-01 9.227136e-01 0.000000e+00
    outer loop
      vertex 3.202910e+01 6.647482e+00 1.400000e+01
      vertex 3.261423e+01 6.403028e+00 1.400000e+01
      vertex 3.261423e+01 6.403028e+00 0.000000e+00
    endloop
  endfacet
  facet normal 6.017973e-01 7.986488e-01 0.000000e+00
    outer loop
      vertex 3.312069e+01 6.021402e+00 1.400000e+01
      vertex 3.312069e+01 6.021402e+00 0.000000e+00
      vertex 3.261423e+01 6.403028e+00 0.000000e+00
    endloop
  endfacet
  facet normal 1.452143e-01 9.894002e-01 0.000000e+00
    outer loop
      vertex 3.140168e+01 6.739569e+00 1.400000e+01
      vertex 3.202910e+01 6.647482e+00 1.400000e+01
      vertex 3.202910e+01 6.647482e+00 0.000000e+00
    endloop
  endfacet
  facet normal 3.854862e-01 9.227136e-01 0.000000e+00
    outer loop
      vertex 3.202910e+01 6.647482e+00 1.400000e+01
      vertex 3.261423e+01 6.403028e+00 0.000000e+00
      vertex 3.202910e+01 6.647482e+00 0.000000e+00
    endloop
  endfacet
  facet normal 1.452143e-01 9.894002e-01 0.000000e+00
    outer loop
      vertex 3.140168e+01 6.739569e+00 1.400000e+01
      vertex 3.202910e+01 6.647482e+00 0.000000e+00
      vertex 3.140168e+01 6.739569e+00 0.000000e+00
    endloop
  endfacet
  facet normal 1.204357e-01 -9.927211e-01 0.000000e+00
    outer loop
      vertex -4.185026e+00 -2.675615e+00 1.400000e+01
      vertex 3.165526e+01 1.672483e+00 0.000000e+00
      vertex 3.165526e+01 1.672483e+00 1.400000e+01
    endloop
  endfacet
  facet normal 1.204357e-01 -9.927211e-01 0.000000e+00
    outer loop
      vertex -4.185026e+00 -2.675615e+00 0.000000e+00
      vertex 3.165526e+01 1.672483e+00 0.000000e+00
      vertex -4.185026e+00 -2.675615e+00 1.400000e+01
    endloop
  endfacet
  facet normal -7.802187e-01 -6.255068e-01 -0.000000e+00
    outer loop
      vertex -2.358325e+01 -2.702665e+00 1.400000e+01
      vertex -2.358325e+01 -2.702665e+00 0.000000e+00
      vertex -2.214571e+01 -4.495756e+00 0.000000e+00
    endloop
  endfacet
  facet normal -7.802187e-01 -6.255068e-01 -0.000000e+00
    outer loop
      vertex -2.214571e+01 -4.495756e+00 1.400000e+01
      vertex -2.358325e+01 -2.702665e+00 1.400000e+01
      vertex -2.214571e+01 -4.495756e+00 0.000000e+00
    endloop
  endfacet
  facet normal -6.410109e-01 -7.675318e-01 -0.000000e+00
    outer loop
      vertex -2.038178e+01 -5.968924e+00 1.400000e+01
      vertex -2.214571e+01 -4.495756e+00 1.400000e+01
      vertex -2.038178e+01 -5.968924e+00 0.000000e+00
    endloop
  endfacet
  facet normal -4.764488e-01 -8.792022e-01 0.000000e+00
    outer loop
      vertex -1.836120e+01 -7.063894e+00 1.400000e+01
      vertex -2.038178e+01 -5.968924e+00 1.400000e+01
      vertex -2.038178e+01 -5.968924e+00 0.000000e+00
    endloop
  endfacet
  facet normal -6.410109e-01 -7.675318e-01 -0.000000e+00
    outer loop
      vertex -2.214571e+01 -4.495756e+00 1.400000e+01
      vertex -2.214571e+01 -4.495756e+00 0.000000e+00
      vertex -2.038178e+01 -5.968924e+00 0.000000e+00
    endloop
  endfacet
  facet normal -4.764488e-01 -8.792022e-01 -0.000000e+00
    outer loop
      vertex -1.836120e+01 -7.063894e+00 1.400000e+01
      vertex -2.038178e+01 -5.968924e+00 0.000000e+00
      vertex -1.836120e+01 -7.063894e+00 0.000000e+00
    endloop
  endfacet
  facet normal -2.930447e-01 -9.560987e-01 -0.000000e+00
    outer loop
      vertex -1.616390e+01 -7.737368e+00 1.400000e+01
      vertex -1.836120e+01 -7.063894e+00 1.400000e+01
      vertex -1.616390e+01 -7.737368e+00 0.000000e+00
    endloop
  endfacet
  facet normal -9.804843e-02 -9.951816e-01 0.000000e+00
    outer loop
      vertex -1.387678e+01 -7.962702e+00 1.400000e+01
      vertex -1.616390e+01 -7.737368e+00 1.400000e+01
      vertex -1.616390e+01 -7.737368e+00 0.000000e+00
    endloop
  endfacet
  facet normal -2.930447e-01 -9.560987e-01 -0.000000e+00
    outer loop
      vertex -1.836120e+01 -7.063894e+00 1.400000e+01
      vertex -1.836120e+01 -7.063894e+00 0.000000e+00
      vertex -1.616390e+01 -7.737368e+00 0.000000e+00
    endloop
  endfacet
  facet normal -9.804843e-02 -9.951816e-01 -0.000000e+00
    outer loop
      vertex -1.387678e+01 -7.962702e+00 1.400000e+01
      vertex -1.616390e+01 -7.737368e+00 0.000000e+00
      vertex -1.387678e+01 -7.962702e+00 0.000000e+00
    endloop
  endfacet
  facet normal 1.008237e-01 -9.949043e-01 0.000000e+00
    outer loop
      vertex -1.159030e+01 -7.730989e+00 1.400000e+01
      vertex -1.387678e+01 -7.962702e+00 1.400000e+01
      vertex -1.159030e+01 -7.730989e+00 0.000000e+00
    endloop
  endfacet
  facet normal 2.957089e-01 -9.552781e-01 0.000000e+00
    outer loop
      vertex -9.394889e+00 -7.051394e+00 1.400000e+01
      vertex -1.159030e+01 -7.730989e+00 1.400000e+01
      vertex -1.159030e+01 -7.730989e+00 0.000000e+00
    endloop
  endfacet
  facet normal 1.008237e-01 -9.949043e-01 0.000000e+00
    outer loop
      vertex -1.387678e+01 -7.962702e+00 1.400000e+01
      vertex -1.387678e+01 -7.962702e+00 0.000000e+00
      vertex -1.159030e+01 -7.730989e+00 0.000000e+00
    endloop
  endfacet
  facet normal 2.957089e-01 -9.552781e-01 0.000000e+00
    outer loop
      vertex -9.394889e+00 -7.051394e+00 1.400000e+01
      vertex -1.159030e+01 -7.730989e+00 0.000000e+00
      vertex -9.394889e+00 -7.051394e+00 0.000000e+00
    endloop
  endfacet
  facet normal 4.789000e-01 -8.778694e-01 0.000000e+00
    outer loop
      vertex -7.377375e+00 -5.950788e+00 1.400000e+01
      vertex -9.394889e+00 -7.051394e+00 1.400000e+01
      vertex -7.377375e+00 -5.950788e+00 0.000000e+00
    endloop
  endfacet
  facet normal 4.789000e-01 -8.778694e-01 0.000000e+00
    outer loop
      vertex -9.394889e+00 -7.051394e+00 1.400000e+01
      vertex -9.394889e+00 -7.051394e+00 0.000000e+00
      vertex -7.377375e+00 -5.950788e+00 0.000000e+00
    endloop
  endfacet
  facet normal 6.431479e-01 -7.657419e-01 0.000000e+00
    outer loop
      vertex -5.617554e+00 -4.472712e+00 1.400000e+01
      vertex -7.377375e+00 -5.950788e+00 1.400000e+01
      vertex -5.617554e+00 -4.472712e+00 0.000000e+00
    endloop
  endfacet
  facet normal 6.431479e-01 -7.657419e-01 0.000000e+00
    outer loop
      vertex -7.377375e+00 -5.950788e+00 1.400000e+01
      vertex -7.377375e+00 -5.950788e+00 0.000000e+00
      vertex -5.617554e+00 -4.472712e+00 0.000000e+00
    endloop
  endfacet
  facet normal 7.819606e-01 -6.233278e-01 0.000000e+00
    outer loop
      vertex -4.185026e+00 -2.675615e+00 1.400000e+01
      vertex -5.617554e+00 -4.472712e+00 1.400000e+01
      vertex -4.185026e+00 -2.675615e+00 0.000000e+00
    endloop
  endfacet
  facet normal 7.819606e-01 -6.233278e-01 0.000000e+00
    outer loop
      vertex -5.617554e+00 -4.472712e+00 1.400000e+01
      vertex -5.617554e+00 -4.472712e+00 0.000000e+00
      vertex -4.185026e+00 -2.675615e+00 0.000000e+00
    endloop
  endfacet
  facet normal -1.092753e-01 9.940115e-01 0.000000e+00
    outer loop
      vertex -2.920497e+01 7.788301e+00 1.400000e+01
      vertex -2.761855e+01 7.962702e+00 1.400000e+01
      vertex -2.761855e+01 7.962702e+00 0.000000e+00
    endloop
  endfacet
  facet normal -1.092753e-01 9.940115e-01 0.000000e+00
    outer loop
      vertex -2.920497e+01 7.788301e+00 1.400000e+01
      vertex -2.761855e+01 7.962702e+00 0.000000e+00
      vertex -2.920497e+01 7.788301e+00 0.000000e+00
    endloop
  endfacet
  facet normal -3.615445e-01 9.323549e-01 0.000000e+00
    outer loop
      vertex -3.069298e+01 7.211287e+00 1.400000e+01
      vertex -2.920497e+01 7.788301e+00 1.400000e+01
      vertex -3.069298e+01 7.211287e+00 0.000000e+00
    endloop
  endfacet
  facet normal -3.615445e-01 9.323549e-01 0.000000e+00
    outer loop
      vertex -2.920497e+01 7.788301e+00 1.400000e+01
      vertex -2.920497e+01 7.788301e+00 0.000000e+00
      vertex -3.069298e+01 7.211287e+00 0.000000e+00
    endloop
  endfacet
  facet normal -5.894309e-01 8.078188e-01 0.000000e+00
    outer loop
      vertex -3.198223e+01 6.270571e+00 1.400000e+01
      vertex -3.069298e+01 7.211287e+00 1.400000e+01
      vertex -3.198223e+01 6.270571e+00 0.000000e+00
    endloop
  endfacet
  facet normal -5.894309e-01 8.078188e-01 0.000000e+00
    outer loop
      vertex -3.069298e+01 7.211287e+00 1.400000e+01
      vertex -3.069298e+01 7.211287e+00 0.000000e+00
      vertex -3.198223e+01 6.270571e+00 0.000000e+00
    endloop
  endfacet
  facet normal -7.775655e-01 6.288019e-01 0.000000e+00
    outer loop
      vertex -3.298579e+01 5.029596e+00 1.400000e+01
      vertex -3.198223e+01 6.270571e+00 1.400000e+01
      vertex -3.298579e+01 5.029596e+00 0.000000e+00
    endloop
  endfacet
  facet normal -9.132599e-01 4.073775e-01 0.000000e+00
    outer loop
      vertex -3.363595e+01 3.572058e+00 1.400000e+01
      vertex -3.298579e+01 5.029596e+00 1.400000e+01
      vertex -3.298579e+01 5.029596e+00 0.000000e+00
    endloop
  endfacet
  facet normal -7.775655e-01 6.288019e-01 0.000000e+00
    outer loop
      vertex -3.198223e+01 6.270571e+00 1.400000e+01
      vertex -3.198223e+01 6.270571e+00 0.000000e+00
      vertex -3.298579e+01 5.029596e+00 0.000000e+00
    endloop
  endfacet
  facet normal -9.132599e-01 4.073775e-01 0.000000e+00
    outer loop
      vertex -3.363595e+01 3.572058e+00 1.400000e+01
      vertex -3.298579e+01 5.029596e+00 0.000000e+00
      vertex -3.363595e+01 3.572058e+00 0.000000e+00
    endloop
  endfacet
  facet normal -9.873621e-01 1.584801e-01 0.000000e+00
    outer loop
      vertex -3.388888e+01 1.996256e+00 1.400000e+01
      vertex -3.363595e+01 3.572058e+00 1.400000e+01
      vertex -3.388888e+01 1.996256e+00 0.000000e+00
    endloop
  endfacet
  facet normal -9.948757e-01 -1.011055e-01 0.000000e+00
    outer loop
      vertex -3.372752e+01 4.084606e-01 1.400000e+01
      vertex -3.388888e+01 1.996256e+00 1.400000e+01
      vertex -3.388888e+01 1.996256e+00 0.000000e+00
    endloop
  endfacet
  facet normal -9.873621e-01 1.584801e-01 0.000000e+00
    outer loop
      vertex -3.363595e+01 3.572058e+00 1.400000e+01
      vertex -3.363595e+01 3.572058e+00 0.000000e+00
      vertex -3.388888e+01 1.996256e+00 0.000000e+00
    endloop
  endfacet
  facet normal -9.352931e-01 -3.538741e-01 0.000000e+00
    outer loop
      vertex -3.316274e+01 -1.084242e+00 1.400000e+01
      vertex -3.372752e+01 4.084606e-01 1.400000e+01
      vertex -3.372752e+01 4.084606e-01 0.000000e+00
    endloop
  endfacet
  facet normal -9.948757e-01 -1.011055e-01 -0.000000e+00
    outer loop
      vertex -3.372752e+01 4.084606e-01 1.400000e+01
      vertex -3.388888e+01 1.996256e+00 0.000000e+00
      vertex -3.372752e+01 4.084606e-01 0.000000e+00
    endloop
  endfacet
  facet normal -9.352931e-01 -3.538741e-01 -0.000000e+00
    outer loop
      vertex -3.316274e+01 -1.084242e+00 1.400000e+01
      vertex -3.372752e+01 4.084606e-01 0.000000e+00
      vertex -3.316274e+01 -1.084242e+00 0.000000e+00
    endloop
  endfacet
  facet normal -8.126331e-01 -5.827757e-01 -0.000000e+00
    outer loop
      vertex -3.223265e+01 -2.381182e+00 1.400000e+01
      vertex -3.316274e+01 -1.084242e+00 1.400000e+01
      vertex -3.223265e+01 -2.381182e+00 0.000000e+00
    endloop
  endfacet
  facet normal -8.126331e-01 -5.827757e-01 -0.000000e+00
    outer loop
      vertex -3.316274e+01 -1.084242e+00 1.400000e+01
      vertex -3.316274e+01 -1.084242e+00 0.000000e+00
      vertex -3.223265e+01 -2.381182e+00 0.000000e+00
    endloop
  endfacet
  facet normal -6.351694e-01 -7.723728e-01 -0.000000e+00
    outer loop
      vertex -3.099996e+01 -3.394896e+00 1.400000e+01
      vertex -3.223265e+01 -2.381182e+00 1.400000e+01
      vertex -3.099996e+01 -3.394896e+00 0.000000e+00
    endloop
  endfacet
  facet normal -6.351694e-01 -7.723728e-01 -0.000000e+00
    outer loop
      vertex -3.223265e+01 -2.381182e+00 1.400000e+01
      vertex -3.223265e+01 -2.381182e+00 0.000000e+00
      vertex -3.099996e+01 -3.394896e+00 0.000000e+00
    endloop
  endfacet
  facet normal -4.148653e-01 -9.098830e-01 -0.000000e+00
    outer loop
      vertex -2.954782e+01 -4.057009e+00 1.400000e+01
      vertex -3.099996e+01 -3.394896e+00 1.400000e+01
      vertex -2.954782e+01 -4.057009e+00 0.000000e+00
    endloop
  endfacet
  facet normal -1.665875e-01 -9.860267e-01 0.000000e+00
    outer loop
      vertex -2.797414e+01 -4.322878e+00 1.400000e+01
      vertex -2.954782e+01 -4.057009e+00 1.400000e+01
      vertex -2.954782e+01 -4.057009e+00 0.000000e+00
    endloop
  endfacet
  facet normal -4.148653e-01 -9.098830e-01 -0.000000e+00
    outer loop
      vertex -3.099996e+01 -3.394896e+00 1.400000e+01
      vertex -3.099996e+01 -3.394896e+00 0.000000e+00
      vertex -2.954782e+01 -4.057009e+00 0.000000e+00
    endloop
  endfacet
  facet normal -1.665875e-01 -9.860267e-01 -0.000000e+00
    outer loop
      vertex -2.797414e+01 -4.322878e+00 1.400000e+01
      vertex -2.954782e+01 -4.057009e+00 0.000000e+00
      vertex -2.797414e+01 -4.322878e+00 0.000000e+00
    endloop
  endfacet
  facet normal 9.293104e-02 -9.956725e-01 0.000000e+00
    outer loop
      vertex -2.638508e+01 -4.174562e+00 1.400000e+01
      vertex -2.797414e+01 -4.322878e+00 1.400000e+01
      vertex -2.638508e+01 -4.174562e+00 0.000000e+00
    endloop
  endfacet
  facet normal 9.293104e-02 -9.956725e-01 0.000000e+00
    outer loop
      vertex -2.797414e+01 -4.322878e+00 1.400000e+01
      vertex -2.797414e+01 -4.322878e+00 0.000000e+00
      vertex -2.638508e+01 -4.174562e+00 0.000000e+00
    endloop
  endfacet
  facet normal 3.461778e-01 -9.381689e-01 0.000000e+00
    outer loop
      vertex -2.488779e+01 -3.622072e+00 1.400000e+01
      vertex -2.638508e+01 -4.174562e+00 1.400000e+01
      vertex -2.488779e+01 -3.622072e+00 0.000000e+00
    endloop
  endfacet
  facet normal 5.760795e-01 -8.173937e-01 0.000000e+00
    outer loop
      vertex -2.358325e+01 -2.702665e+00 1.400000e+01
      vertex -2.488779e+01 -3.622072e+00 1.400000e+01
      vertex -2.488779e+01 -3.622072e+00 0.000000e+00
    endloop
  endfacet
  facet normal 3.461778e-01 -9.381689e-01 0.000000e+00
    outer loop
      vertex -2.638508e+01 -4.174562e+00 1.400000e+01
      vertex -2.638508e+01 -4.174562e+00 0.000000e+00
      vertex -2.488779e+01 -3.622072e+00 0.000000e+00
    endloop
  endfacet
  facet normal 5.760795e-01 -8.173937e-01 0.000000e+00
    outer loop
      vertex -2.358325e+01 -2.702665e+00 1.400000e+01
      vertex -2.488779e+01 -3.622072e+00 0.000000e+00
      vertex -2.358325e+01 -2.702665e+00 0.000000e+00
    endloop
  endfacet
  facet normal 2.071952e-02 9.997853e-01 0.000000e+00
    outer loop
      vertex 3.140168e+01 6.739569e+00 0.000000e+00
      vertex -2.761855e+01 7.962702e+00 0.000000e+00
      vertex -2.761855e+01 7.962702e+00 1.400000e+01
    endloop
  endfacet
  facet normal 2.071952e-02 9.997853e-01 0.000000e+00
    outer loop
      vertex 3.140168e+01 6.739569e+00 0.000000e+00
      vertex -2.761855e+01 7.962702e+00 1.400000e+01
      vertex 3.140168e+01 6.739569e+00 1.400000e+01
    endloop
  endfacet
  facet normal -1.873769e-01 9.822881e-01 0.000000e+00
    outer loop
      vertex -2.728236e+01 3.918667e-01 0.000000e+00
      vertex -2.765170e+01 3.214130e-01 0.000000e+00
      vertex -2.765170e+01 3.214130e-01 1.400000e+01
    endloop
  endfacet
  facet normal -1.873769e-01 9.822881e-01 0.000000e+00
    outer loop
      vertex -2.728236e+01 3.918667e-01 0.000000e+00
      vertex -2.765170e+01 3.214130e-01 1.400000e+01
      vertex -2.728236e+01 3.918667e-01 1.400000e+01
    endloop
  endfacet
  facet normal -4.257843e-01 9.048247e-01 0.000000e+00
    outer loop
      vertex -2.728236e+01 3.918667e-01 0.000000e+00
      vertex -2.728236e+01 3.918667e-01 1.400000e+01
      vertex -2.694214e+01 5.519619e-01 1.400000e+01
    endloop
  endfacet
  facet normal -4.257843e-01 9.048247e-01 0.000000e+00
    outer loop
      vertex -2.694214e+01 5.519619e-01 0.000000e+00
      vertex -2.728236e+01 3.918667e-01 0.000000e+00
      vertex -2.694214e+01 5.519619e-01 1.400000e+01
    endloop
  endfacet
  facet normal -9.921148e-01 -1.253320e-01 0.000000e+00
    outer loop
      vertex -2.629301e+01 2.191488e+00 0.000000e+00
      vertex -2.624588e+01 1.818453e+00 0.000000e+00
      vertex -2.624588e+01 1.818453e+00 1.400000e+01
    endloop
  endfacet
  facet normal -9.921148e-01 -1.253320e-01 0.000000e+00
    outer loop
      vertex -2.629301e+01 2.191488e+00 0.000000e+00
      vertex -2.624588e+01 1.818453e+00 1.400000e+01
      vertex -2.629301e+01 2.191488e+00 1.400000e+01
    endloop
  endfacet
  facet normal -6.374215e-01 7.705153e-01 0.000000e+00
    outer loop
      vertex -2.665243e+01 7.916317e-01 0.000000e+00
      vertex -2.694214e+01 5.519619e-01 0.000000e+00
      vertex -2.694214e+01 5.519619e-01 1.400000e+01
    endloop
  endfacet
  facet normal -6.374215e-01 7.705153e-01 0.000000e+00
    outer loop
      vertex -2.665243e+01 7.916317e-01 0.000000e+00
      vertex -2.694214e+01 5.519619e-01 1.400000e+01
      vertex -2.665243e+01 7.916317e-01 1.400000e+01
    endloop
  endfacet
  facet normal -9.297754e-01 -3.681274e-01 0.000000e+00
    outer loop
      vertex -2.643142e+01 2.541082e+00 0.000000e+00
      vertex -2.629301e+01 2.191488e+00 1.400000e+01
      vertex -2.643142e+01 2.541082e+00 1.400000e+01
    endloop
  endfacet
  facet normal -9.297754e-01 -3.681274e-01 0.000000e+00
    outer loop
      vertex -2.643142e+01 2.541082e+00 0.000000e+00
      vertex -2.629301e+01 2.191488e+00 0.000000e+00
      vertex -2.629301e+01 2.191488e+00 1.400000e+01
    endloop
  endfacet
  facet normal -8.090193e-01 5.877823e-01 0.000000e+00
    outer loop
      vertex -2.643142e+01 1.095823e+00 0.000000e+00
      vertex -2.665243e+01 7.916317e-01 0.000000e+00
      vertex -2.665243e+01 7.916317e-01 1.400000e+01
    endloop
  endfacet
  facet normal -8.090193e-01 5.877823e-01 0.000000e+00
    outer loop
      vertex -2.643142e+01 1.095823e+00 0.000000e+00
      vertex -2.665243e+01 7.916317e-01 1.400000e+01
      vertex -2.643142e+01 1.095823e+00 1.400000e+01
    endloop
  endfacet
  facet normal -8.090193e-01 -5.877823e-01 0.000000e+00
    outer loop
      vertex -2.665243e+01 2.845274e+00 0.000000e+00
      vertex -2.643142e+01 2.541082e+00 1.400000e+01
      vertex -2.665243e+01 2.845274e+00 1.400000e+01
    endloop
  endfacet
  facet normal -9.297754e-01 3.681274e-01 0.000000e+00
    outer loop
      vertex -2.629301e+01 1.445417e+00 0.000000e+00
      vertex -2.643142e+01 1.095823e+00 0.000000e+00
      vertex -2.643142e+01 1.095823e+00 1.400000e+01
    endloop
  endfacet
  facet normal -8.090193e-01 -5.877823e-01 0.000000e+00
    outer loop
      vertex -2.665243e+01 2.845274e+00 0.000000e+00
      vertex -2.643142e+01 2.541082e+00 0.000000e+00
      vertex -2.643142e+01 2.541082e+00 1.400000e+01
    endloop
  endfacet
  facet normal -9.297754e-01 3.681274e-01 0.000000e+00
    outer loop
      vertex -2.629301e+01 1.445417e+00 0.000000e+00
      vertex -2.643142e+01 1.095823e+00 1.400000e+01
      vertex -2.629301e+01 1.445417e+00 1.400000e+01
    endloop
  endfacet
  facet normal -9.921148e-01 1.253320e-01 0.000000e+00
    outer loop
      vertex -2.624588e+01 1.818453e+00 0.000000e+00
      vertex -2.629301e+01 1.445417e+00 1.400000e+01
      vertex -2.624588e+01 1.818453e+00 1.400000e+01
    endloop
  endfacet
  facet normal -9.921148e-01 1.253320e-01 0.000000e+00
    outer loop
      vertex -2.624588e+01 1.818453e+00 0.000000e+00
      vertex -2.629301e+01 1.445417e+00 0.000000e+00
      vertex -2.629301e+01 1.445417e+00 1.400000e+01
    endloop
  endfacet
  facet normal -6.374215e-01 -7.705153e-01 0.000000e+00
    outer loop
      vertex -2.694214e+01 3.084944e+00 0.000000e+00
      vertex -2.665243e+01 2.845274e+00 1.400000e+01
      vertex -2.694214e+01 3.084944e+00 1.400000e+01
    endloop
  endfacet
  facet normal -6.374215e-01 -7.705153e-01 0.000000e+00
    outer loop
      vertex -2.694214e+01 3.084944e+00 0.000000e+00
      vertex -2.665243e+01 2.845274e+00 0.000000e+00
      vertex -2.665243e+01 2.845274e+00 1.400000e+01
    endloop
  endfacet
  facet normal -4.257761e-01 -9.048287e-01 0.000000e+00
    outer loop
      vertex -2.728236e+01 3.245035e+00 0.000000e+00
      vertex -2.694214e+01 3.084944e+00 1.400000e+01
      vertex -2.728236e+01 3.245035e+00 1.400000e+01
    endloop
  endfacet
  facet normal -4.257761e-01 -9.048287e-01 0.000000e+00
    outer loop
      vertex -2.728236e+01 3.245035e+00 0.000000e+00
      vertex -2.694214e+01 3.084944e+00 0.000000e+00
      vertex -2.694214e+01 3.084944e+00 1.400000e+01
    endloop
  endfacet
  facet normal -1.873867e-01 -9.822862e-01 0.000000e+00
    outer loop
      vertex -2.765170e+01 3.315493e+00 0.000000e+00
      vertex -2.728236e+01 3.245035e+00 1.400000e+01
      vertex -2.765170e+01 3.315493e+00 1.400000e+01
    endloop
  endfacet
  facet normal -1.873867e-01 -9.822862e-01 0.000000e+00
    outer loop
      vertex -2.765170e+01 3.315493e+00 0.000000e+00
      vertex -2.728236e+01 3.245035e+00 0.000000e+00
      vertex -2.728236e+01 3.245035e+00 1.400000e+01
    endloop
  endfacet
  facet normal 6.279042e-02 -9.980267e-01 0.000000e+00
    outer loop
      vertex -2.802696e+01 3.291883e+00 0.000000e+00
      vertex -2.765170e+01 3.315493e+00 1.400000e+01
      vertex -2.802696e+01 3.291883e+00 1.400000e+01
    endloop
  endfacet
  facet normal 6.279042e-02 -9.980267e-01 0.000000e+00
    outer loop
      vertex -2.802696e+01 3.291883e+00 0.000000e+00
      vertex -2.765170e+01 3.315493e+00 0.000000e+00
      vertex -2.765170e+01 3.315493e+00 1.400000e+01
    endloop
  endfacet
  facet normal 3.090205e-01 -9.510554e-01 0.000000e+00
    outer loop
      vertex -2.838455e+01 3.175692e+00 0.000000e+00
      vertex -2.802696e+01 3.291883e+00 1.400000e+01
      vertex -2.838455e+01 3.175692e+00 1.400000e+01
    endloop
  endfacet
  facet normal 3.090205e-01 -9.510554e-01 0.000000e+00
    outer loop
      vertex -2.838455e+01 3.175692e+00 0.000000e+00
      vertex -2.802696e+01 3.291883e+00 0.000000e+00
      vertex -2.802696e+01 3.291883e+00 1.400000e+01
    endloop
  endfacet
  facet normal 5.358247e-01 -8.443292e-01 0.000000e+00
    outer loop
      vertex -2.870202e+01 2.974222e+00 0.000000e+00
      vertex -2.838455e+01 3.175692e+00 1.400000e+01
      vertex -2.870202e+01 2.974222e+00 1.400000e+01
    endloop
  endfacet
  facet normal 7.289700e-01 -6.845456e-01 0.000000e+00
    outer loop
      vertex -2.870202e+01 2.974222e+00 0.000000e+00
      vertex -2.870202e+01 2.974222e+00 1.400000e+01
      vertex -2.895941e+01 2.700129e+00 1.400000e+01
    endloop
  endfacet
  facet normal 5.358247e-01 -8.443292e-01 0.000000e+00
    outer loop
      vertex -2.870202e+01 2.974222e+00 0.000000e+00
      vertex -2.838455e+01 3.175692e+00 0.000000e+00
      vertex -2.838455e+01 3.175692e+00 1.400000e+01
    endloop
  endfacet
  facet normal 8.763067e-01 -4.817536e-01 0.000000e+00
    outer loop
      vertex -2.895941e+01 2.700129e+00 0.000000e+00
      vertex -2.895941e+01 2.700129e+00 1.400000e+01
      vertex -2.914055e+01 2.370638e+00 1.400000e+01
    endloop
  endfacet
  facet normal 7.289700e-01 -6.845456e-01 0.000000e+00
    outer loop
      vertex -2.895941e+01 2.700129e+00 0.000000e+00
      vertex -2.870202e+01 2.974222e+00 0.000000e+00
      vertex -2.895941e+01 2.700129e+00 1.400000e+01
    endloop
  endfacet
  facet normal 8.763067e-01 -4.817536e-01 0.000000e+00
    outer loop
      vertex -2.914055e+01 2.370638e+00 0.000000e+00
      vertex -2.895941e+01 2.700129e+00 0.000000e+00
      vertex -2.914055e+01 2.370638e+00 1.400000e+01
    endloop
  endfacet
  facet normal 9.685832e-01 -2.486897e-01 0.000000e+00
    outer loop
      vertex -2.923406e+01 2.006453e+00 0.000000e+00
      vertex -2.914055e+01 2.370638e+00 0.000000e+00
      vertex -2.914055e+01 2.370638e+00 1.400000e+01
    endloop
  endfacet
  facet normal 9.685832e-01 -2.486897e-01 0.000000e+00
    outer loop
      vertex -2.923406e+01 2.006453e+00 0.000000e+00
      vertex -2.914055e+01 2.370638e+00 1.400000e+01
      vertex -2.923406e+01 2.006453e+00 1.400000e+01
    endloop
  endfacet
  facet normal 1.000000e+00 0.000000e+00 0.000000e+00
    outer loop
      vertex -2.923406e+01 1.630453e+00 0.000000e+00
      vertex -2.923406e+01 2.006453e+00 0.000000e+00
      vertex -2.923406e+01 2.006453e+00 1.400000e+01
    endloop
  endfacet
  facet normal 1.000000e+00 0.000000e+00 0.000000e+00
    outer loop
      vertex -2.923406e+01 1.630453e+00 0.000000e+00
      vertex -2.923406e+01 2.006453e+00 1.400000e+01
      vertex -2.923406e+01 1.630453e+00 1.400000e+01
    endloop
  endfacet
  facet normal 9.685838e-01 2.486872e-01 0.000000e+00
    outer loop
      vertex -2.914055e+01 1.266264e+00 0.000000e+00
      vertex -2.923406e+01 1.630453e+00 0.000000e+00
      vertex -2.923406e+01 1.630453e+00 1.400000e+01
    endloop
  endfacet
  facet normal 9.685838e-01 2.486872e-01 0.000000e+00
    outer loop
      vertex -2.914055e+01 1.266264e+00 0.000000e+00
      vertex -2.923406e+01 1.630453e+00 1.400000e+01
      vertex -2.914055e+01 1.266264e+00 1.400000e+01
    endloop
  endfacet
  facet normal 8.763067e-01 4.817536e-01 0.000000e+00
    outer loop
      vertex -2.914055e+01 1.266264e+00 0.000000e+00
      vertex -2.914055e+01 1.266264e+00 1.400000e+01
      vertex -2.895941e+01 9.367733e-01 1.400000e+01
    endloop
  endfacet
  facet normal 8.763067e-01 4.817536e-01 0.000000e+00
    outer loop
      vertex -2.895941e+01 9.367733e-01 0.000000e+00
      vertex -2.914055e+01 1.266264e+00 0.000000e+00
      vertex -2.895941e+01 9.367733e-01 1.400000e+01
    endloop
  endfacet
  facet normal 7.289652e-01 6.845507e-01 0.000000e+00
    outer loop
      vertex -2.870202e+01 6.626835e-01 0.000000e+00
      vertex -2.895941e+01 9.367733e-01 0.000000e+00
      vertex -2.895941e+01 9.367733e-01 1.400000e+01
    endloop
  endfacet
  facet normal 7.289652e-01 6.845507e-01 0.000000e+00
    outer loop
      vertex -2.870202e+01 6.626835e-01 0.000000e+00
      vertex -2.895941e+01 9.367733e-01 1.400000e+01
      vertex -2.870202e+01 6.626835e-01 1.400000e+01
    endloop
  endfacet
  facet normal 5.358320e-01 8.443246e-01 0.000000e+00
    outer loop
      vertex -2.838455e+01 4.612103e-01 0.000000e+00
      vertex -2.870202e+01 6.626835e-01 0.000000e+00
      vertex -2.870202e+01 6.626835e-01 1.400000e+01
    endloop
  endfacet
  facet normal 5.358320e-01 8.443246e-01 0.000000e+00
    outer loop
      vertex -2.838455e+01 4.612103e-01 0.000000e+00
      vertex -2.870202e+01 6.626835e-01 1.400000e+01
      vertex -2.838455e+01 4.612103e-01 1.400000e+01
    endloop
  endfacet
  facet normal 3.090113e-01 9.510584e-01 0.000000e+00
    outer loop
      vertex -2.838455e+01 4.612103e-01 0.000000e+00
      vertex -2.838455e+01 4.612103e-01 1.400000e+01
      vertex -2.802696e+01 3.450222e-01 1.400000e+01
    endloop
  endfacet
  facet normal 3.090113e-01 9.510584e-01 0.000000e+00
    outer loop
      vertex -2.802696e+01 3.450222e-01 0.000000e+00
      vertex -2.838455e+01 4.612103e-01 0.000000e+00
      vertex -2.802696e+01 3.450222e-01 1.400000e+01
    endloop
  endfacet
  facet normal 6.279042e-02 9.980267e-01 0.000000e+00
    outer loop
      vertex -2.765170e+01 3.214130e-01 0.000000e+00
      vertex -2.802696e+01 3.450222e-01 0.000000e+00
      vertex -2.802696e+01 3.450222e-01 1.400000e+01
    endloop
  endfacet
  facet normal 6.279042e-02 9.980267e-01 0.000000e+00
    outer loop
      vertex -2.765170e+01 3.214130e-01 0.000000e+00
      vertex -2.802696e+01 3.450222e-01 1.400000e+01
      vertex -2.765170e+01 3.214130e-01 1.400000e+01
    endloop
  endfacet
  facet normal -1.873813e-01 9.822872e-01 0.000000e+00
    outer loop
      vertex 3.165801e+01 3.245989e+00 0.000000e+00
      vertex 3.141178e+01 3.199018e+00 0.000000e+00
      vertex 3.141178e+01 3.199018e+00 1.400000e+01
    endloop
  endfacet
  facet normal -1.873813e-01 9.822872e-01 0.000000e+00
    outer loop
      vertex 3.165801e+01 3.245989e+00 0.000000e+00
      vertex 3.141178e+01 3.199018e+00 1.400000e+01
      vertex 3.165801e+01 3.245989e+00 1.400000e+01
    endloop
  endfacet
  facet normal -4.257809e-01 9.048263e-01 0.000000e+00
    outer loop
      vertex 3.165801e+01 3.245989e+00 0.000000e+00
      vertex 3.165801e+01 3.245989e+00 1.400000e+01
      vertex 3.188481e+01 3.352716e+00 1.400000e+01
    endloop
  endfacet
  facet normal -4.257809e-01 9.048263e-01 0.000000e+00
    outer loop
      vertex 3.188481e+01 3.352716e+00 0.000000e+00
      vertex 3.165801e+01 3.245989e+00 0.000000e+00
      vertex 3.188481e+01 3.352716e+00 1.400000e+01
    endloop
  endfacet
  facet normal -9.921141e-01 -1.253383e-01 0.000000e+00
    outer loop
      vertex 3.231757e+01 4.445734e+00 0.000000e+00
      vertex 3.234899e+01 4.197046e+00 0.000000e+00
      vertex 3.234899e+01 4.197046e+00 1.400000e+01
    endloop
  endfacet
  facet normal -9.921141e-01 -1.253383e-01 0.000000e+00
    outer loop
      vertex 3.231757e+01 4.445734e+00 0.000000e+00
      vertex 3.234899e+01 4.197046e+00 1.400000e+01
      vertex 3.231757e+01 4.445734e+00 1.400000e+01
    endloop
  endfacet
  facet normal -6.374276e-01 7.705103e-01 0.000000e+00
    outer loop
      vertex 3.207796e+01 3.512499e+00 0.000000e+00
      vertex 3.188481e+01 3.352716e+00 0.000000e+00
      vertex 3.188481e+01 3.352716e+00 1.400000e+01
    endloop
  endfacet
  facet normal -6.374276e-01 7.705103e-01 0.000000e+00
    outer loop
      vertex 3.207796e+01 3.512499e+00 0.000000e+00
      vertex 3.188481e+01 3.352716e+00 1.400000e+01
      vertex 3.207796e+01 3.512499e+00 1.400000e+01
    endloop
  endfacet
  facet normal -9.297745e-01 -3.681296e-01 0.000000e+00
    outer loop
      vertex 3.222529e+01 4.678797e+00 0.000000e+00
      vertex 3.231757e+01 4.445734e+00 1.400000e+01
      vertex 3.222529e+01 4.678797e+00 1.400000e+01
    endloop
  endfacet
  facet normal -9.297745e-01 -3.681296e-01 0.000000e+00
    outer loop
      vertex 3.222529e+01 4.678797e+00 0.000000e+00
      vertex 3.231757e+01 4.445734e+00 0.000000e+00
      vertex 3.231757e+01 4.445734e+00 1.400000e+01
    endloop
  endfacet
  facet normal -8.090150e-01 5.877880e-01 0.000000e+00
    outer loop
      vertex 3.222529e+01 3.715292e+00 0.000000e+00
      vertex 3.207796e+01 3.512499e+00 0.000000e+00
      vertex 3.207796e+01 3.512499e+00 1.400000e+01
    endloop
  endfacet
  facet normal -8.090150e-01 5.877880e-01 0.000000e+00
    outer loop
      vertex 3.222529e+01 3.715292e+00 0.000000e+00
      vertex 3.207796e+01 3.512499e+00 1.400000e+01
      vertex 3.222529e+01 3.715292e+00 1.400000e+01
    endloop
  endfacet
  facet normal -8.090150e-01 -5.877880e-01 0.000000e+00
    outer loop
      vertex 3.207796e+01 4.881590e+00 0.000000e+00
      vertex 3.222529e+01 4.678797e+00 1.400000e+01
      vertex 3.207796e+01 4.881590e+00 1.400000e+01
    endloop
  endfacet
  facet normal -9.297745e-01 3.681296e-01 0.000000e+00
    outer loop
      vertex 3.231757e+01 3.948355e+00 0.000000e+00
      vertex 3.222529e+01 3.715292e+00 0.000000e+00
      vertex 3.222529e+01 3.715292e+00 1.400000e+01
    endloop
  endfacet
  facet normal -8.090150e-01 -5.877880e-01 0.000000e+00
    outer loop
      vertex 3.207796e+01 4.881590e+00 0.000000e+00
      vertex 3.222529e+01 4.678797e+00 0.000000e+00
      vertex 3.222529e+01 4.678797e+00 1.400000e+01
    endloop
  endfacet
  facet normal -9.297745e-01 3.681296e-01 0.000000e+00
    outer loop
      vertex 3.231757e+01 3.948355e+00 0.000000e+00
      vertex 3.222529e+01 3.715292e+00 1.400000e+01
      vertex 3.231757e+01 3.948355e+00 1.400000e+01
    endloop
  endfacet
  facet normal -9.921143e-01 1.253364e-01 0.000000e+00
    outer loop
      vertex 3.234899e+01 4.197046e+00 0.000000e+00
      vertex 3.231757e+01 3.948355e+00 1.400000e+01
      vertex 3.234899e+01 4.197046e+00 1.400000e+01
    endloop
  endfacet
  facet normal -9.921143e-01 1.253364e-01 0.000000e+00
    outer loop
      vertex 3.234899e+01 4.197046e+00 0.000000e+00
      vertex 3.231757e+01 3.948355e+00 0.000000e+00
      vertex 3.231757e+01 3.948355e+00 1.400000e+01
    endloop
  endfacet
  facet normal -6.374276e-01 -7.705103e-01 0.000000e+00
    outer loop
      vertex 3.188481e+01 5.041372e+00 0.000000e+00
      vertex 3.207796e+01 4.881590e+00 1.400000e+01
      vertex 3.188481e+01 5.041372e+00 1.400000e+01
    endloop
  endfacet
  facet normal -6.374276e-01 -7.705103e-01 0.000000e+00
    outer loop
      vertex 3.188481e+01 5.041372e+00 0.000000e+00
      vertex 3.207796e+01 4.881590e+00 0.000000e+00
      vertex 3.207796e+01 4.881590e+00 1.400000e+01
    endloop
  endfacet
  facet normal -4.257809e-01 -9.048263e-01 0.000000e+00
    outer loop
      vertex 3.165801e+01 5.148100e+00 0.000000e+00
      vertex 3.188481e+01 5.041372e+00 1.400000e+01
      vertex 3.165801e+01 5.148100e+00 1.400000e+01
    endloop
  endfacet
  facet normal -4.257809e-01 -9.048263e-01 0.000000e+00
    outer loop
      vertex 3.165801e+01 5.148100e+00 0.000000e+00
      vertex 3.188481e+01 5.041372e+00 0.000000e+00
      vertex 3.188481e+01 5.041372e+00 1.400000e+01
    endloop
  endfacet
  facet normal -1.873813e-01 -9.822872e-01 0.000000e+00
    outer loop
      vertex 3.141178e+01 5.195070e+00 0.000000e+00
      vertex 3.165801e+01 5.148100e+00 1.400000e+01
      vertex 3.141178e+01 5.195070e+00 1.400000e+01
    endloop
  endfacet
  facet normal -1.873813e-01 -9.822872e-01 0.000000e+00
    outer loop
      vertex 3.141178e+01 5.195070e+00 0.000000e+00
      vertex 3.165801e+01 5.148100e+00 0.000000e+00
      vertex 3.165801e+01 5.148100e+00 1.400000e+01
    endloop
  endfacet
  facet normal 6.279042e-02 -9.980267e-01 0.000000e+00
    outer loop
      vertex 3.116161e+01 5.179331e+00 0.000000e+00
      vertex 3.141178e+01 5.195070e+00 1.400000e+01
      vertex 3.116161e+01 5.179331e+00 1.400000e+01
    endloop
  endfacet
  facet normal 6.279042e-02 -9.980267e-01 0.000000e+00
    outer loop
      vertex 3.116161e+01 5.179331e+00 0.000000e+00
      vertex 3.141178e+01 5.195070e+00 0.000000e+00
      vertex 3.141178e+01 5.195070e+00 1.400000e+01
    endloop
  endfacet
  facet normal 3.090190e-01 -9.510559e-01 0.000000e+00
    outer loop
      vertex 3.092321e+01 5.101870e+00 0.000000e+00
      vertex 3.116161e+01 5.179331e+00 1.400000e+01
      vertex 3.092321e+01 5.101870e+00 1.400000e+01
    endloop
  endfacet
  facet normal 3.090190e-01 -9.510559e-01 0.000000e+00
    outer loop
      vertex 3.092321e+01 5.101870e+00 0.000000e+00
      vertex 3.116161e+01 5.179331e+00 0.000000e+00
      vertex 3.116161e+01 5.179331e+00 1.400000e+01
    endloop
  endfacet
  facet normal 5.358234e-01 -8.443301e-01 0.000000e+00
    outer loop
      vertex 3.071157e+01 4.967558e+00 0.000000e+00
      vertex 3.092321e+01 5.101870e+00 1.400000e+01
      vertex 3.071157e+01 4.967558e+00 1.400000e+01
    endloop
  endfacet
  facet normal 7.289689e-01 -6.845468e-01 0.000000e+00
    outer loop
      vertex 3.071157e+01 4.967558e+00 0.000000e+00
      vertex 3.071157e+01 4.967558e+00 1.400000e+01
      vertex 3.053997e+01 4.784830e+00 1.400000e+01
    endloop
  endfacet
  facet normal 5.358234e-01 -8.443301e-01 0.000000e+00
    outer loop
      vertex 3.071157e+01 4.967558e+00 0.000000e+00
      vertex 3.092321e+01 5.101870e+00 0.000000e+00
      vertex 3.092321e+01 5.101870e+00 1.400000e+01
    endloop
  endfacet
  facet normal 8.763036e-01 -4.817593e-01 0.000000e+00
    outer loop
      vertex 3.053997e+01 4.784830e+00 0.000000e+00
      vertex 3.053997e+01 4.784830e+00 1.400000e+01
      vertex 3.041921e+01 4.565168e+00 1.400000e+01
    endloop
  endfacet
  facet normal 7.289689e-01 -6.845468e-01 0.000000e+00
    outer loop
      vertex 3.053997e+01 4.784830e+00 0.000000e+00
      vertex 3.071157e+01 4.967558e+00 0.000000e+00
      vertex 3.053997e+01 4.784830e+00 1.400000e+01
    endloop
  endfacet
  facet normal 8.763036e-01 -4.817593e-01 0.000000e+00
    outer loop
      vertex 3.041921e+01 4.565168e+00 0.000000e+00
      vertex 3.053997e+01 4.784830e+00 0.000000e+00
      vertex 3.041921e+01 4.565168e+00 1.400000e+01
    endloop
  endfacet
  facet normal 9.685851e-01 -2.486825e-01 0.000000e+00
    outer loop
      vertex 3.035687e+01 4.322378e+00 0.000000e+00
      vertex 3.041921e+01 4.565168e+00 0.000000e+00
      vertex 3.041921e+01 4.565168e+00 1.400000e+01
    endloop
  endfacet
  facet normal 9.685851e-01 -2.486825e-01 0.000000e+00
    outer loop
      vertex 3.035687e+01 4.322378e+00 0.000000e+00
      vertex 3.041921e+01 4.565168e+00 1.400000e+01
      vertex 3.035687e+01 4.322378e+00 1.400000e+01
    endloop
  endfacet
  facet normal 1.000000e+00 0.000000e+00 0.000000e+00
    outer loop
      vertex 3.035687e+01 4.071711e+00 0.000000e+00
      vertex 3.035687e+01 4.322378e+00 0.000000e+00
      vertex 3.035687e+01 4.322378e+00 1.400000e+01
    endloop
  endfacet
  facet normal 1.000000e+00 0.000000e+00 0.000000e+00
    outer loop
      vertex 3.035687e+01 4.071711e+00 0.000000e+00
      vertex 3.035687e+01 4.322378e+00 1.400000e+01
      vertex 3.035687e+01 4.071711e+00 1.400000e+01
    endloop
  endfacet
  facet normal 9.685851e-01 2.486825e-01 0.000000e+00
    outer loop
      vertex 3.041921e+01 3.828920e+00 0.000000e+00
      vertex 3.035687e+01 4.071711e+00 0.000000e+00
      vertex 3.035687e+01 4.071711e+00 1.400000e+01
    endloop
  endfacet
  facet normal 9.685851e-01 2.486825e-01 0.000000e+00
    outer loop
      vertex 3.041921e+01 3.828920e+00 0.000000e+00
      vertex 3.035687e+01 4.071711e+00 1.400000e+01
      vertex 3.041921e+01 3.828920e+00 1.400000e+01
    endloop
  endfacet
  facet normal 8.763036e-01 4.817593e-01 0.000000e+00
    outer loop
      vertex 3.041921e+01 3.828920e+00 0.000000e+00
      vertex 3.041921e+01 3.828920e+00 1.400000e+01
      vertex 3.053997e+01 3.609259e+00 1.400000e+01
    endloop
  endfacet
  facet normal 8.763036e-01 4.817593e-01 0.000000e+00
    outer loop
      vertex 3.053997e+01 3.609259e+00 0.000000e+00
      vertex 3.041921e+01 3.828920e+00 0.000000e+00
      vertex 3.053997e+01 3.609259e+00 1.400000e+01
    endloop
  endfacet
  facet normal 7.289689e-01 6.845468e-01 0.000000e+00
    outer loop
      vertex 3.071157e+01 3.426531e+00 0.000000e+00
      vertex 3.053997e+01 3.609259e+00 0.000000e+00
      vertex 3.053997e+01 3.609259e+00 1.400000e+01
    endloop
  endfacet
  facet normal 7.289689e-01 6.845468e-01 0.000000e+00
    outer loop
      vertex 3.071157e+01 3.426531e+00 0.000000e+00
      vertex 3.053997e+01 3.609259e+00 1.400000e+01
      vertex 3.071157e+01 3.426531e+00 1.400000e+01
    endloop
  endfacet
  facet normal 5.358234e-01 8.443301e-01 0.000000e+00
    outer loop
      vertex 3.092321e+01 3.292219e+00 0.000000e+00
      vertex 3.071157e+01 3.426531e+00 0.000000e+00
      vertex 3.071157e+01 3.426531e+00 1.400000e+01
    endloop
  endfacet
  facet normal 5.358234e-01 8.443301e-01 0.000000e+00
    outer loop
      vertex 3.092321e+01 3.292219e+00 0.000000e+00
      vertex 3.071157e+01 3.426531e+00 1.400000e+01
      vertex 3.092321e+01 3.292219e+00 1.400000e+01
    endloop
  endfacet
  facet normal 3.090190e-01 9.510559e-01 0.000000e+00
    outer loop
      vertex 3.092321e+01 3.292219e+00 0.000000e+00
      vertex 3.092321e+01 3.292219e+00 1.400000e+01
      vertex 3.116161e+01 3.214758e+00 1.400000e+01
    endloop
  endfacet
  facet normal 3.090190e-01 9.510559e-01 0.000000e+00
    outer loop
      vertex 3.116161e+01 3.214758e+00 0.000000e+00
      vertex 3.092321e+01 3.292219e+00 0.000000e+00
      vertex 3.116161e+01 3.214758e+00 1.400000e+01
    endloop
  endfacet
  facet normal 6.279042e-02 9.980267e-01 0.000000e+00
    outer loop
      vertex 3.141178e+01 3.199018e+00 0.000000e+00
      vertex 3.116161e+01 3.214758e+00 0.000000e+00
      vertex 3.116161e+01 3.214758e+00 1.400000e+01
    endloop
  endfacet
  facet normal 6.279042e-02 9.980267e-01 0.000000e+00
    outer loop
      vertex 3.141178e+01 3.199018e+00 0.000000e+00
      vertex 3.116161e+01 3.214758e+00 1.400000e+01
      vertex 3.141178e+01 3.199018e+00 1.400000e+01
    endloop
  endfacet
  facet normal 0.000000e+00 0.000000e+00 -1.000000e+00
    outer loop
      vertex -2.643142e+01 2.541082e+00 0.000000e+00
      vertex -4.185026e+00 -2.675615e+00 0.000000e+00
      vertex -2.629301e+01 2.191488e+00 0.000000e+00
    endloop
  endfacet
  facet normal 0.000000e+00 0.000000e+00 -1.000000e+00
    outer loop
      vertex 3.202910e+01 6.647482e+00 0.000000e+00
      vertex 3.261423e+01 6.403028e+00 0.000000e+00
      vertex 3.165801e+01 5.148100e+00 0.000000e+00
    endloop
  endfacet
  facet normal 0.000000e+00 0.000000e+00 -1.000000e+00
    outer loop
      vertex 3.202910e+01 6.647482e+00 0.000000e+00
      vertex 3.165801e+01 5.148100e+00 0.000000e+00
      vertex 3.141178e+01 5.195070e+00 0.000000e+00
    endloop
  endfacet
  facet normal 0.000000e+00 0.000000e+00 -1.000000e+00
    outer loop
      vertex -2.870202e+01 6.626835e-01 0.000000e+00
      vertex -2.838455e+01 4.612103e-01 0.000000e+00
      vertex -3.099996e+01 -3.394896e+00 0.000000e+00
    endloop
  endfacet
  facet normal 0.000000e+00 0.000000e+00 -1.000000e+00
    outer loop
      vertex 3.140168e+01 6.739569e+00 0.000000e+00
      vertex 3.202910e+01 6.647482e+00 0.000000e+00
      vertex 3.141178e+01 5.195070e+00 0.000000e+00
    endloop
  endfacet
  facet normal 0.000000e+00 0.000000e+00 -1.000000e+00
    outer loop
      vertex 3.140168e+01 6.739569e+00 0.000000e+00
      vertex 3.141178e+01 5.195070e+00 0.000000e+00
      vertex 3.116161e+01 5.179331e+00 0.000000e+00
    endloop
  endfacet
  facet normal 0.000000e+00 0.000000e+00 -1.000000e+00
    outer loop
      vertex 3.140168e+01 6.739569e+00 0.000000e+00
      vertex 3.116161e+01 5.179331e+00 0.000000e+00
      vertex 3.092321e+01 5.101870e+00 0.000000e+00
    endloop
  endfacet
  facet normal 0.000000e+00 0.000000e+00 -1.000000e+00
    outer loop
      vertex 3.140168e+01 6.739569e+00 0.000000e+00
      vertex 3.092321e+01 5.101870e+00 0.000000e+00
      vertex 3.071157e+01 4.967558e+00 0.000000e+00
    endloop
  endfacet
  facet normal 0.000000e+00 0.000000e+00 -1.000000e+00
    outer loop
      vertex 3.140168e+01 6.739569e+00 0.000000e+00
      vertex 3.071157e+01 4.967558e+00 0.000000e+00
      vertex 3.053997e+01 4.784830e+00 0.000000e+00
    endloop
  endfacet
  facet normal 0.000000e+00 0.000000e+00 -1.000000e+00
    outer loop
      vertex 3.140168e+01 6.739569e+00 0.000000e+00
      vertex 3.053997e+01 4.784830e+00 0.000000e+00
      vertex 3.041921e+01 4.565168e+00 0.000000e+00
    endloop
  endfacet
  facet normal 0.000000e+00 0.000000e+00 -1.000000e+00
    outer loop
      vertex -3.223265e+01 -2.381182e+00 0.000000e+00
      vertex -2.870202e+01 6.626835e-01 0.000000e+00
      vertex -3.099996e+01 -3.394896e+00 0.000000e+00
    endloop
  endfacet
  facet normal 0.000000e+00 0.000000e+00 -1.000000e+00
    outer loop
      vertex -2.895941e+01 9.367733e-01 0.000000e+00
      vertex -2.870202e+01 6.626835e-01 0.000000e+00
      vertex -3.223265e+01 -2.381182e+00 0.000000e+00
    endloop
  endfacet
  facet normal 0.000000e+00 0.000000e+00 -1.000000e+00
    outer loop
      vertex 3.207796e+01 3.512499e+00 0.000000e+00
      vertex 3.329398e+01 2.558691e+00 0.000000e+00
      vertex 3.282816e+01 2.128408e+00 0.000000e+00
    endloop
  endfacet
  facet normal 0.000000e+00 0.000000e+00 -1.000000e+00
    outer loop
      vertex -9.394889e+00 -7.051394e+00 0.000000e+00
      vertex -5.617554e+00 -4.472712e+00 0.000000e+00
      vertex -7.377375e+00 -5.950788e+00 0.000000e+00
    endloop
  endfacet
  facet normal 0.000000e+00 0.000000e+00 -1.000000e+00
    outer loop
      vertex 3.188481e+01 3.352716e+00 0.000000e+00
      vertex 3.282816e+01 2.128408e+00 0.000000e+00
      vertex 3.227036e+01 1.826754e+00 0.000000e+00
    endloop
  endfacet
  facet normal 0.000000e+00 0.000000e+00 -1.000000e+00
    outer loop
      vertex 3.188481e+01 3.352716e+00 0.000000e+00
      vertex 3.207796e+01 3.512499e+00 0.000000e+00
      vertex 3.282816e+01 2.128408e+00 0.000000e+00
    endloop
  endfacet
  facet normal 0.000000e+00 0.000000e+00 -1.000000e+00
    outer loop
      vertex 3.222529e+01 3.715292e+00 0.000000e+00
      vertex 3.363886e+01 3.090853e+00 0.000000e+00
      vertex 3.329398e+01 2.558691e+00 0.000000e+00
    endloop
  endfacet
  facet normal 0.000000e+00 0.000000e+00 -1.000000e+00
    outer loop
      vertex 3.222529e+01 3.715292e+00 0.000000e+00
      vertex 3.329398e+01 2.558691e+00 0.000000e+00
      vertex 3.207796e+01 3.512499e+00 0.000000e+00
    endloop
  endfacet
  facet normal 0.000000e+00 0.000000e+00 -1.000000e+00
    outer loop
      vertex 3.165801e+01 3.245989e+00 0.000000e+00
      vertex 3.227036e+01 1.826754e+00 0.000000e+00
      vertex 3.165526e+01 1.672483e+00 0.000000e+00
    endloop
  endfacet
  facet normal 0.000000e+00 0.000000e+00 -1.000000e+00
    outer loop
      vertex -1.616390e+01 -7.737368e+00 0.000000e+00
      vertex -1.159030e+01 -7.730989e+00 0.000000e+00
      vertex -1.387678e+01 -7.962702e+00 0.000000e+00
    endloop
  endfacet
  facet normal 0.000000e+00 0.000000e+00 -1.000000e+00
    outer loop
      vertex -1.616390e+01 -7.737368e+00 0.000000e+00
      vertex -9.394889e+00 -7.051394e+00 0.000000e+00
      vertex -1.159030e+01 -7.730989e+00 0.000000e+00
    endloop
  endfacet
  facet normal 0.000000e+00 0.000000e+00 -1.000000e+00
    outer loop
      vertex 3.165801e+01 3.245989e+00 0.000000e+00
      vertex 3.188481e+01 3.352716e+00 0.000000e+00
      vertex 3.227036e+01 1.826754e+00 0.000000e+00
    endloop
  endfacet
  facet normal 0.000000e+00 0.000000e+00 -1.000000e+00
    outer loop
      vertex 3.231757e+01 3.948355e+00 0.000000e+00
      vertex 3.384136e+01 3.691793e+00 0.000000e+00
      vertex 3.363886e+01 3.090853e+00 0.000000e+00
    endloop
  endfacet
  facet normal 0.000000e+00 0.000000e+00 -1.000000e+00
    outer loop
      vertex 3.231757e+01 3.948355e+00 0.000000e+00
      vertex 3.363886e+01 3.090853e+00 0.000000e+00
      vertex 3.222529e+01 3.715292e+00 0.000000e+00
    endloop
  endfacet
  facet normal 0.000000e+00 0.000000e+00 -1.000000e+00
    outer loop
      vertex 3.141178e+01 3.199018e+00 0.000000e+00
      vertex 3.165801e+01 3.245989e+00 0.000000e+00
      vertex 3.165526e+01 1.672483e+00 0.000000e+00
    endloop
  endfacet
  facet normal 0.000000e+00 0.000000e+00 -1.000000e+00
    outer loop
      vertex -2.214571e+01 -4.495756e+00 0.000000e+00
      vertex -1.836120e+01 -7.063894e+00 0.000000e+00
      vertex -2.038178e+01 -5.968924e+00 0.000000e+00
    endloop
  endfacet
  facet normal 0.000000e+00 0.000000e+00 -1.000000e+00
    outer loop
      vertex -2.214571e+01 -4.495756e+00 0.000000e+00
      vertex -1.616390e+01 -7.737368e+00 0.000000e+00
      vertex -1.836120e+01 -7.063894e+00 0.000000e+00
    endloop
  endfacet
  facet normal 0.000000e+00 0.000000e+00 -1.000000e+00
    outer loop
      vertex -2.214571e+01 -4.495756e+00 0.000000e+00
      vertex -4.185026e+00 -2.675615e+00 0.000000e+00
      vertex -5.617554e+00 -4.472712e+00 0.000000e+00
    endloop
  endfacet
  facet normal 0.000000e+00 0.000000e+00 -1.000000e+00
    outer loop
      vertex 3.234899e+01 4.197046e+00 0.000000e+00
      vertex 3.384136e+01 3.691793e+00 0.000000e+00
      vertex 3.231757e+01 3.948355e+00 0.000000e+00
    endloop
  endfacet
  facet normal 0.000000e+00 0.000000e+00 -1.000000e+00
    outer loop
      vertex -2.214571e+01 -4.495756e+00 0.000000e+00
      vertex -9.394889e+00 -7.051394e+00 0.000000e+00
      vertex -1.616390e+01 -7.737368e+00 0.000000e+00
    endloop
  endfacet
  facet normal 0.000000e+00 0.000000e+00 -1.000000e+00
    outer loop
      vertex 3.234899e+01 4.197046e+00 0.000000e+00
      vertex 3.388888e+01 4.324156e+00 0.000000e+00
      vertex 3.384136e+01 3.691793e+00 0.000000e+00
    endloop
  endfacet
  facet normal 0.000000e+00 0.000000e+00 -1.000000e+00
    outer loop
      vertex -2.214571e+01 -4.495756e+00 0.000000e+00
      vertex -5.617554e+00 -4.472712e+00 0.000000e+00
      vertex -9.394889e+00 -7.051394e+00 0.000000e+00
    endloop
  endfacet
  facet normal 0.000000e+00 0.000000e+00 -1.000000e+00
    outer loop
      vertex -2.358325e+01 -2.702665e+00 0.000000e+00
      vertex -4.185026e+00 -2.675615e+00 0.000000e+00
      vertex -2.214571e+01 -4.495756e+00 0.000000e+00
    endloop
  endfacet
  facet normal 0.000000e+00 0.000000e+00 -1.000000e+00
    outer loop
      vertex -3.316274e+01 -1.084242e+00 0.000000e+00
      vertex -2.895941e+01 9.367733e-01 0.000000e+00
      vertex -3.223265e+01 -2.381182e+00 0.000000e+00
    endloop
  endfacet
  facet normal 0.000000e+00 0.000000e+00 -1.000000e+00
    outer loop
      vertex 3.116161e+01 3.214758e+00 0.000000e+00
      vertex 3.141178e+01 3.199018e+00 0.000000e+00
      vertex 3.165526e+01 1.672483e+00 0.000000e+00
    endloop
  endfacet
  facet normal 0.000000e+00 0.000000e+00 -1.000000e+00
    outer loop
      vertex -3.316274e+01 -1.084242e+00 0.000000e+00
      vertex -2.914055e+01 1.266264e+00 0.000000e+00
      vertex -2.895941e+01 9.367733e-01 0.000000e+00
    endloop
  endfacet
  facet normal 0.000000e+00 0.000000e+00 -1.000000e+00
    outer loop
      vertex 3.231757e+01 4.445734e+00 0.000000e+00
      vertex 3.377846e+01 4.948610e+00 0.000000e+00
      vertex 3.388888e+01 4.324156e+00 0.000000e+00
    endloop
  endfacet
  facet normal 0.000000e+00 0.000000e+00 -1.000000e+00
    outer loop
      vertex 3.231757e+01 4.445734e+00 0.000000e+00
      vertex 3.388888e+01 4.324156e+00 0.000000e+00
      vertex 3.234899e+01 4.197046e+00 0.000000e+00
    endloop
  endfacet
  facet normal 0.000000e+00 0.000000e+00 -1.000000e+00
    outer loop
      vertex -3.372752e+01 4.084606e-01 0.000000e+00
      vertex -2.914055e+01 1.266264e+00 0.000000e+00
      vertex -3.316274e+01 -1.084242e+00 0.000000e+00
    endloop
  endfacet
  facet normal 0.000000e+00 0.000000e+00 -1.000000e+00
    outer loop
      vertex -3.372752e+01 4.084606e-01 0.000000e+00
      vertex -2.923406e+01 1.630453e+00 0.000000e+00
      vertex -2.914055e+01 1.266264e+00 0.000000e+00
    endloop
  endfacet
  facet normal 0.000000e+00 0.000000e+00 -1.000000e+00
    outer loop
      vertex -2.761855e+01 7.962702e+00 0.000000e+00
      vertex -4.185026e+00 -2.675615e+00 0.000000e+00
      vertex -2.643142e+01 2.541082e+00 0.000000e+00
    endloop
  endfacet
  facet normal 0.000000e+00 0.000000e+00 -1.000000e+00
    outer loop
      vertex 3.092321e+01 3.292219e+00 0.000000e+00
      vertex 3.116161e+01 3.214758e+00 0.000000e+00
      vertex 3.165526e+01 1.672483e+00 0.000000e+00
    endloop
  endfacet
  facet normal 0.000000e+00 0.000000e+00 -1.000000e+00
    outer loop
      vertex -2.761855e+01 7.962702e+00 0.000000e+00
      vertex -2.643142e+01 2.541082e+00 0.000000e+00
      vertex -2.665243e+01 2.845274e+00 0.000000e+00
    endloop
  endfacet
  facet normal 0.000000e+00 0.000000e+00 -1.000000e+00
    outer loop
      vertex -2.761855e+01 7.962702e+00 0.000000e+00
      vertex -2.665243e+01 2.845274e+00 0.000000e+00
      vertex -2.694214e+01 3.084944e+00 0.000000e+00
    endloop
  endfacet
  facet normal 0.000000e+00 0.000000e+00 -1.000000e+00
    outer loop
      vertex -2.761855e+01 7.962702e+00 0.000000e+00
      vertex -2.694214e+01 3.084944e+00 0.000000e+00
      vertex -2.728236e+01 3.245035e+00 0.000000e+00
    endloop
  endfacet
  facet normal 0.000000e+00 0.000000e+00 -1.000000e+00
    outer loop
      vertex 3.222529e+01 4.678797e+00 0.000000e+00
      vertex 3.351698e+01 5.526335e+00 0.000000e+00
      vertex 3.377846e+01 4.948610e+00 0.000000e+00
    endloop
  endfacet
  facet normal 0.000000e+00 0.000000e+00 -1.000000e+00
    outer loop
      vertex -2.761855e+01 7.962702e+00 0.000000e+00
      vertex -2.728236e+01 3.245035e+00 0.000000e+00
      vertex -2.765170e+01 3.315493e+00 0.000000e+00
    endloop
  endfacet
  facet normal 0.000000e+00 0.000000e+00 -1.000000e+00
    outer loop
      vertex -2.761855e+01 7.962702e+00 0.000000e+00
      vertex -2.765170e+01 3.315493e+00 0.000000e+00
      vertex -2.802696e+01 3.291883e+00 0.000000e+00
    endloop
  endfacet
  facet normal 0.000000e+00 0.000000e+00 -1.000000e+00
    outer loop
      vertex 3.222529e+01 4.678797e+00 0.000000e+00
      vertex 3.377846e+01 4.948610e+00 0.000000e+00
      vertex 3.231757e+01 4.445734e+00 0.000000e+00
    endloop
  endfacet
  facet normal 0.000000e+00 0.000000e+00 -1.000000e+00
    outer loop
      vertex 3.071157e+01 3.426531e+00 0.000000e+00
      vertex 3.092321e+01 3.292219e+00 0.000000e+00
      vertex 3.165526e+01 1.672483e+00 0.000000e+00
    endloop
  endfacet
  facet normal 0.000000e+00 0.000000e+00 -1.000000e+00
    outer loop
      vertex -3.388888e+01 1.996256e+00 0.000000e+00
      vertex -2.923406e+01 2.006453e+00 0.000000e+00
      vertex -2.923406e+01 1.630453e+00 0.000000e+00
    endloop
  endfacet
  facet normal 0.000000e+00 0.000000e+00 -1.000000e+00
    outer loop
      vertex -3.388888e+01 1.996256e+00 0.000000e+00
      vertex -2.923406e+01 1.630453e+00 0.000000e+00
      vertex -3.372752e+01 4.084606e-01 0.000000e+00
    endloop
  endfacet
  facet normal 0.000000e+00 0.000000e+00 -1.000000e+00
    outer loop
      vertex -2.694214e+01 5.519619e-01 0.000000e+00
      vertex -2.358325e+01 -2.702665e+00 0.000000e+00
      vertex -2.488779e+01 -3.622072e+00 0.000000e+00
    endloop
  endfacet
  facet normal 0.000000e+00 0.000000e+00 -1.000000e+00
    outer loop
      vertex -2.694214e+01 5.519619e-01 0.000000e+00
      vertex -2.665243e+01 7.916317e-01 0.000000e+00
      vertex -2.358325e+01 -2.702665e+00 0.000000e+00
    endloop
  endfacet
  facet normal 0.000000e+00 0.000000e+00 -1.000000e+00
    outer loop
      vertex 3.207796e+01 4.881590e+00 0.000000e+00
      vertex 3.351698e+01 5.526335e+00 0.000000e+00
      vertex 3.222529e+01 4.678797e+00 0.000000e+00
    endloop
  endfacet
  facet normal 0.000000e+00 0.000000e+00 -1.000000e+00
    outer loop
      vertex -2.920497e+01 7.788301e+00 0.000000e+00
      vertex -2.761855e+01 7.962702e+00 0.000000e+00
      vertex -2.802696e+01 3.291883e+00 0.000000e+00
    endloop
  endfacet
  facet normal 0.000000e+00 0.000000e+00 -1.000000e+00
    outer loop
      vertex 3.312069e+01 6.021402e+00 0.000000e+00
      vertex 3.351698e+01 5.526335e+00 0.000000e+00
      vertex 3.207796e+01 4.881590e+00 0.000000e+00
    endloop
  endfacet
  facet normal 0.000000e+00 0.000000e+00 -1.000000e+00
    outer loop
      vertex -2.920497e+01 7.788301e+00 0.000000e+00
      vertex -2.802696e+01 3.291883e+00 0.000000e+00
      vertex -2.838455e+01 3.175692e+00 0.000000e+00
    endloop
  endfacet
  facet normal 0.000000e+00 0.000000e+00 -1.000000e+00
    outer loop
      vertex -2.643142e+01 1.095823e+00 0.000000e+00
      vertex -2.358325e+01 -2.702665e+00 0.000000e+00
      vertex -2.665243e+01 7.916317e-01 0.000000e+00
    endloop
  endfacet
  facet normal 0.000000e+00 0.000000e+00 -1.000000e+00
    outer loop
      vertex 3.053997e+01 3.609259e+00 0.000000e+00
      vertex 3.071157e+01 3.426531e+00 0.000000e+00
      vertex 3.165526e+01 1.672483e+00 0.000000e+00
    endloop
  endfacet
  facet normal 0.000000e+00 0.000000e+00 -1.000000e+00
    outer loop
      vertex -3.363595e+01 3.572058e+00 0.000000e+00
      vertex -2.914055e+01 2.370638e+00 0.000000e+00
      vertex -2.923406e+01 2.006453e+00 0.000000e+00
    endloop
  endfacet
  facet normal 0.000000e+00 0.000000e+00 -1.000000e+00
    outer loop
      vertex -3.363595e+01 3.572058e+00 0.000000e+00
      vertex -2.923406e+01 2.006453e+00 0.000000e+00
      vertex -3.388888e+01 1.996256e+00 0.000000e+00
    endloop
  endfacet
  facet normal 0.000000e+00 0.000000e+00 -1.000000e+00
    outer loop
      vertex 3.188481e+01 5.041372e+00 0.000000e+00
      vertex 3.312069e+01 6.021402e+00 0.000000e+00
      vertex 3.207796e+01 4.881590e+00 0.000000e+00
    endloop
  endfacet
  facet normal 0.000000e+00 0.000000e+00 -1.000000e+00
    outer loop
      vertex -2.728236e+01 3.918667e-01 0.000000e+00
      vertex -2.488779e+01 -3.622072e+00 0.000000e+00
      vertex -2.638508e+01 -4.174562e+00 0.000000e+00
    endloop
  endfacet
  facet normal 0.000000e+00 0.000000e+00 -1.000000e+00
    outer loop
      vertex -3.069298e+01 7.211287e+00 0.000000e+00
      vertex -2.838455e+01 3.175692e+00 0.000000e+00
      vertex -2.870202e+01 2.974222e+00 0.000000e+00
    endloop
  endfacet
  facet normal 0.000000e+00 0.000000e+00 -1.000000e+00
    outer loop
      vertex -3.069298e+01 7.211287e+00 0.000000e+00
      vertex -2.920497e+01 7.788301e+00 0.000000e+00
      vertex -2.838455e+01 3.175692e+00 0.000000e+00
    endloop
  endfacet
  facet normal 0.000000e+00 0.000000e+00 -1.000000e+00
    outer loop
      vertex -2.728236e+01 3.918667e-01 0.000000e+00
      vertex -2.694214e+01 5.519619e-01 0.000000e+00
      vertex -2.488779e+01 -3.622072e+00 0.000000e+00
    endloop
  endfacet
  facet normal 0.000000e+00 0.000000e+00 -1.000000e+00
    outer loop
      vertex -2.629301e+01 1.445417e+00 0.000000e+00
      vertex -2.358325e+01 -2.702665e+00 0.000000e+00
      vertex -2.643142e+01 1.095823e+00 0.000000e+00
    endloop
  endfacet
  facet normal 0.000000e+00 0.000000e+00 -1.000000e+00
    outer loop
      vertex -3.298579e+01 5.029596e+00 0.000000e+00
      vertex -2.914055e+01 2.370638e+00 0.000000e+00
      vertex -3.363595e+01 3.572058e+00 0.000000e+00
    endloop
  endfacet
  facet normal 0.000000e+00 0.000000e+00 -1.000000e+00
    outer loop
      vertex -3.298579e+01 5.029596e+00 0.000000e+00
      vertex -2.895941e+01 2.700129e+00 0.000000e+00
      vertex -2.914055e+01 2.370638e+00 0.000000e+00
    endloop
  endfacet
  facet normal 0.000000e+00 0.000000e+00 -1.000000e+00
    outer loop
      vertex -3.198223e+01 6.270571e+00 0.000000e+00
      vertex -2.895941e+01 2.700129e+00 0.000000e+00
      vertex -3.298579e+01 5.029596e+00 0.000000e+00
    endloop
  endfacet
  facet normal 0.000000e+00 0.000000e+00 -1.000000e+00
    outer loop
      vertex -3.198223e+01 6.270571e+00 0.000000e+00
      vertex -2.870202e+01 2.974222e+00 0.000000e+00
      vertex -2.895941e+01 2.700129e+00 0.000000e+00
    endloop
  endfacet
  facet normal 0.000000e+00 0.000000e+00 -1.000000e+00
    outer loop
      vertex -3.198223e+01 6.270571e+00 0.000000e+00
      vertex -3.069298e+01 7.211287e+00 0.000000e+00
      vertex -2.870202e+01 2.974222e+00 0.000000e+00
    endloop
  endfacet
  facet normal 0.000000e+00 0.000000e+00 -1.000000e+00
    outer loop
      vertex -2.765170e+01 3.214130e-01 0.000000e+00
      vertex -2.638508e+01 -4.174562e+00 0.000000e+00
      vertex -2.797414e+01 -4.322878e+00 0.000000e+00
    endloop
  endfacet
  facet normal 0.000000e+00 0.000000e+00 -1.000000e+00
    outer loop
      vertex -2.765170e+01 3.214130e-01 0.000000e+00
      vertex -2.728236e+01 3.918667e-01 0.000000e+00
      vertex -2.638508e+01 -4.174562e+00 0.000000e+00
    endloop
  endfacet
  facet normal 0.000000e+00 0.000000e+00 -1.000000e+00
    outer loop
      vertex -9.536743e-07 1.907349e-06 0.000000e+00
      vertex 3.165526e+01 1.672483e+00 0.000000e+00
      vertex -4.185026e+00 -2.675615e+00 0.000000e+00
    endloop
  endfacet
  facet normal 0.000000e+00 0.000000e+00 -1.000000e+00
    outer loop
      vertex 3.261423e+01 6.403028e+00 0.000000e+00
      vertex 3.312069e+01 6.021402e+00 0.000000e+00
      vertex 3.188481e+01 5.041372e+00 0.000000e+00
    endloop
  endfacet
  facet normal 0.000000e+00 0.000000e+00 -1.000000e+00
    outer loop
      vertex -9.536743e-07 1.907349e-06 0.000000e+00
      vertex 3.053997e+01 3.609259e+00 0.000000e+00
      vertex 3.165526e+01 1.672483e+00 0.000000e+00
    endloop
  endfacet
  facet normal 0.000000e+00 0.000000e+00 -1.000000e+00
    outer loop
      vertex -9.536743e-07 1.907349e-06 0.000000e+00
      vertex -4.185026e+00 -2.675615e+00 0.000000e+00
      vertex -2.761855e+01 7.962702e+00 0.000000e+00
    endloop
  endfacet
  facet normal 0.000000e+00 0.000000e+00 -1.000000e+00
    outer loop
      vertex 3.261423e+01 6.403028e+00 0.000000e+00
      vertex 3.188481e+01 5.041372e+00 0.000000e+00
      vertex 3.165801e+01 5.148100e+00 0.000000e+00
    endloop
  endfacet
  facet normal 0.000000e+00 0.000000e+00 -1.000000e+00
    outer loop
      vertex -9.536743e-07 1.907349e-06 0.000000e+00
      vertex -2.761855e+01 7.962702e+00 0.000000e+00
      vertex 3.140168e+01 6.739569e+00 0.000000e+00
    endloop
  endfacet
  facet normal 0.000000e+00 0.000000e+00 -1.000000e+00
    outer loop
      vertex -9.536743e-07 1.907349e-06 0.000000e+00
      vertex 3.140168e+01 6.739569e+00 0.000000e+00
      vertex 3.041921e+01 4.565168e+00 0.000000e+00
    endloop
  endfacet
  facet normal 0.000000e+00 0.000000e+00 -1.000000e+00
    outer loop
      vertex -9.536743e-07 1.907349e-06 0.000000e+00
      vertex 3.041921e+01 4.565168e+00 0.000000e+00
      vertex 3.035687e+01 4.322378e+00 0.000000e+00
    endloop
  endfacet
  facet normal 0.000000e+00 0.000000e+00 -1.000000e+00
    outer loop
      vertex -2.624588e+01 1.818453e+00 0.000000e+00
      vertex -2.358325e+01 -2.702665e+00 0.000000e+00
      vertex -2.629301e+01 1.445417e+00 0.000000e+00
    endloop
  endfacet
  facet normal 0.000000e+00 0.000000e+00 -1.000000e+00
    outer loop
      vertex -9.536743e-07 1.907349e-06 0.000000e+00
      vertex 3.035687e+01 4.322378e+00 0.000000e+00
      vertex 3.035687e+01 4.071711e+00 0.000000e+00
    endloop
  endfacet
  facet normal 0.000000e+00 0.000000e+00 -1.000000e+00
    outer loop
      vertex -9.536743e-07 1.907349e-06 0.000000e+00
      vertex 3.035687e+01 4.071711e+00 0.000000e+00
      vertex 3.041921e+01 3.828920e+00 0.000000e+00
    endloop
  endfacet
  facet normal 0.000000e+00 0.000000e+00 -1.000000e+00
    outer loop
      vertex -9.536743e-07 1.907349e-06 0.000000e+00
      vertex 3.041921e+01 3.828920e+00 0.000000e+00
      vertex 3.053997e+01 3.609259e+00 0.000000e+00
    endloop
  endfacet
  facet normal 0.000000e+00 0.000000e+00 -1.000000e+00
    outer loop
      vertex -2.802696e+01 3.450222e-01 0.000000e+00
      vertex -2.765170e+01 3.214130e-01 0.000000e+00
      vertex -2.797414e+01 -4.322878e+00 0.000000e+00
    endloop
  endfacet
  facet normal 0.000000e+00 0.000000e+00 -1.000000e+00
    outer loop
      vertex -2.802696e+01 3.450222e-01 0.000000e+00
      vertex -2.797414e+01 -4.322878e+00 0.000000e+00
      vertex -2.954782e+01 -4.057009e+00 0.000000e+00
    endloop
  endfacet
  facet normal 0.000000e+00 0.000000e+00 -1.000000e+00
    outer loop
      vertex -2.629301e+01 2.191488e+00 0.000000e+00
      vertex -2.358325e+01 -2.702665e+00 0.000000e+00
      vertex -2.624588e+01 1.818453e+00 0.000000e+00
    endloop
  endfacet
  facet normal 0.000000e+00 0.000000e+00 -1.000000e+00
    outer loop
      vertex -2.629301e+01 2.191488e+00 0.000000e+00
      vertex -4.185026e+00 -2.675615e+00 0.000000e+00
      vertex -2.358325e+01 -2.702665e+00 0.000000e+00
    endloop
  endfacet
  facet normal 0.000000e+00 0.000000e+00 -1.000000e+00
    outer loop
      vertex -2.838455e+01 4.612103e-01 0.000000e+00
      vertex -2.802696e+01 3.450222e-01 0.000000e+00
      vertex -2.954782e+01 -4.057009e+00 0.000000e+00
    endloop
  endfacet
  facet normal 0.000000e+00 0.000000e+00 -1.000000e+00
    outer loop
      vertex -2.838455e+01 4.612103e-01 0.000000e+00
      vertex -2.954782e+01 -4.057009e+00 0.000000e+00
      vertex -3.099996e+01 -3.394896e+00 0.000000e+00
    endloop
  endfacet
  facet normal 0.000000e+00 0.000000e+00 1.000000e+00
    outer loop
      vertex -2.629301e+01 2.191488e+00 1.400000e+01
      vertex -4.185026e+00 -2.675615e+00 1.400000e+01
      vertex -2.643142e+01 2.541082e+00 1.400000e+01
    endloop
  endfacet
  facet normal 0.000000e+00 0.000000e+00 1.000000e+00
    outer loop
      vertex 3.165801e+01 5.148100e+00 1.400000e+01
      vertex 3.261423e+01 6.403028e+00 1.400000e+01
      vertex 3.202910e+01 6.647482e+00 1.400000e+01
    endloop
  endfacet
  facet normal 0.000000e+00 0.000000e+00 1.000000e+00
    outer loop
      vertex 3.141178e+01 5.195070e+00 1.400000e+01
      vertex 3.165801e+01 5.148100e+00 1.400000e+01
      vertex 3.202910e+01 6.647482e+00 1.400000e+01
    endloop
  endfacet
  facet normal 0.000000e+00 0.000000e+00 1.000000e+00
    outer loop
      vertex -3.099996e+01 -3.394896e+00 1.400000e+01
      vertex -2.838455e+01 4.612103e-01 1.400000e+01
      vertex -2.870202e+01 6.626835e-01 1.400000e+01
    endloop
  endfacet
  facet normal 0.000000e+00 0.000000e+00 1.000000e+00
    outer loop
      vertex 3.141178e+01 5.195070e+00 1.400000e+01
      vertex 3.202910e+01 6.647482e+00 1.400000e+01
      vertex 3.140168e+01 6.739569e+00 1.400000e+01
    endloop
  endfacet
  facet normal 0.000000e+00 0.000000e+00 1.000000e+00
    outer loop
      vertex 3.116161e+01 5.179331e+00 1.400000e+01
      vertex 3.141178e+01 5.195070e+00 1.400000e+01
      vertex 3.140168e+01 6.739569e+00 1.400000e+01
    endloop
  endfacet
  facet normal 0.000000e+00 0.000000e+00 1.000000e+00
    outer loop
      vertex 3.092321e+01 5.101870e+00 1.400000e+01
      vertex 3.116161e+01 5.179331e+00 1.400000e+01
      vertex 3.140168e+01 6.739569e+00 1.400000e+01
    endloop
  endfacet
  facet normal 0.000000e+00 0.000000e+00 1.000000e+00
    outer loop
      vertex 3.071157e+01 4.967558e+00 1.400000e+01
      vertex 3.092321e+01 5.101870e+00 1.400000e+01
      vertex 3.140168e+01 6.739569e+00 1.400000e+01
    endloop
  endfacet
  facet normal 0.000000e+00 0.000000e+00 1.000000e+00
    outer loop
      vertex 3.053997e+01 4.784830e+00 1.400000e+01
      vertex 3.071157e+01 4.967558e+00 1.400000e+01
      vertex 3.140168e+01 6.739569e+00 1.400000e+01
    endloop
  endfacet
  facet normal 0.000000e+00 0.000000e+00 1.000000e+00
    outer loop
      vertex 3.041921e+01 4.565168e+00 1.400000e+01
      vertex 3.053997e+01 4.784830e+00 1.400000e+01
      vertex 3.140168e+01 6.739569e+00 1.400000e+01
    endloop
  endfacet
  facet normal 0.000000e+00 0.000000e+00 1.000000e+00
    outer loop
      vertex -3.099996e+01 -3.394896e+00 1.400000e+01
      vertex -2.870202e+01 6.626835e-01 1.400000e+01
      vertex -3.223265e+01 -2.381182e+00 1.400000e+01
    endloop
  endfacet
  facet normal 0.000000e+00 0.000000e+00 1.000000e+00
    outer loop
      vertex -3.223265e+01 -2.381182e+00 1.400000e+01
      vertex -2.870202e+01 6.626835e-01 1.400000e+01
      vertex -2.895941e+01 9.367733e-01 1.400000e+01
    endloop
  endfacet
  facet normal 0.000000e+00 0.000000e+00 1.000000e+00
    outer loop
      vertex 3.282816e+01 2.128408e+00 1.400000e+01
      vertex 3.329398e+01 2.558691e+00 1.400000e+01
      vertex 3.207796e+01 3.512499e+00 1.400000e+01
    endloop
  endfacet
  facet normal 0.000000e+00 0.000000e+00 1.000000e+00
    outer loop
      vertex -7.377375e+00 -5.950788e+00 1.400000e+01
      vertex -5.617554e+00 -4.472712e+00 1.400000e+01
      vertex -9.394889e+00 -7.051394e+00 1.400000e+01
    endloop
  endfacet
  facet normal 0.000000e+00 0.000000e+00 1.000000e+00
    outer loop
      vertex 3.227036e+01 1.826754e+00 1.400000e+01
      vertex 3.282816e+01 2.128408e+00 1.400000e+01
      vertex 3.188481e+01 3.352716e+00 1.400000e+01
    endloop
  endfacet
  facet normal 0.000000e+00 0.000000e+00 1.000000e+00
    outer loop
      vertex 3.282816e+01 2.128408e+00 1.400000e+01
      vertex 3.207796e+01 3.512499e+00 1.400000e+01
      vertex 3.188481e+01 3.352716e+00 1.400000e+01
    endloop
  endfacet
  facet normal 0.000000e+00 0.000000e+00 1.000000e+00
    outer loop
      vertex 3.329398e+01 2.558691e+00 1.400000e+01
      vertex 3.363886e+01 3.090853e+00 1.400000e+01
      vertex 3.222529e+01 3.715292e+00 1.400000e+01
    endloop
  endfacet
  facet normal 0.000000e+00 0.000000e+00 1.000000e+00
    outer loop
      vertex 3.207796e+01 3.512499e+00 1.400000e+01
      vertex 3.329398e+01 2.558691e+00 1.400000e+01
      vertex 3.222529e+01 3.715292e+00 1.400000e+01
    endloop
  endfacet
  facet normal 0.000000e+00 0.000000e+00 1.000000e+00
    outer loop
      vertex 3.165526e+01 1.672483e+00 1.400000e+01
      vertex 3.227036e+01 1.826754e+00 1.400000e+01
      vertex 3.165801e+01 3.245989e+00 1.400000e+01
    endloop
  endfacet
  facet normal 0.000000e+00 0.000000e+00 1.000000e+00
    outer loop
      vertex -1.387678e+01 -7.962702e+00 1.400000e+01
      vertex -1.159030e+01 -7.730989e+00 1.400000e+01
      vertex -1.616390e+01 -7.737368e+00 1.400000e+01
    endloop
  endfacet
  facet normal 0.000000e+00 0.000000e+00 1.000000e+00
    outer loop
      vertex -1.159030e+01 -7.730989e+00 1.400000e+01
      vertex -9.394889e+00 -7.051394e+00 1.400000e+01
      vertex -1.616390e+01 -7.737368e+00 1.400000e+01
    endloop
  endfacet
  facet normal 0.000000e+00 0.000000e+00 1.000000e+00
    outer loop
      vertex 3.227036e+01 1.826754e+00 1.400000e+01
      vertex 3.188481e+01 3.352716e+00 1.400000e+01
      vertex 3.165801e+01 3.245989e+00 1.400000e+01
    endloop
  endfacet
  facet normal 0.000000e+00 0.000000e+00 1.000000e+00
    outer loop
      vertex 3.363886e+01 3.090853e+00 1.400000e+01
      vertex 3.384136e+01 3.691793e+00 1.400000e+01
      vertex 3.231757e+01 3.948355e+00 1.400000e+01
    endloop
  endfacet
  facet normal 0.000000e+00 0.000000e+00 1.000000e+00
    outer loop
      vertex 3.222529e+01 3.715292e+00 1.400000e+01
      vertex 3.363886e+01 3.090853e+00 1.400000e+01
      vertex 3.231757e+01 3.948355e+00 1.400000e+01
    endloop
  endfacet
  facet normal 0.000000e+00 0.000000e+00 1.000000e+00
    outer loop
      vertex 3.165526e+01 1.672483e+00 1.400000e+01
      vertex 3.165801e+01 3.245989e+00 1.400000e+01
      vertex 3.141178e+01 3.199018e+00 1.400000e+01
    endloop
  endfacet
  facet normal 0.000000e+00 0.000000e+00 1.000000e+00
    outer loop
      vertex -2.038178e+01 -5.968924e+00 1.400000e+01
      vertex -1.836120e+01 -7.063894e+00 1.400000e+01
      vertex -2.214571e+01 -4.495756e+00 1.400000e+01
    endloop
  endfacet
  facet normal 0.000000e+00 0.000000e+00 1.000000e+00
    outer loop
      vertex -1.836120e+01 -7.063894e+00 1.400000e+01
      vertex -1.616390e+01 -7.737368e+00 1.400000e+01
      vertex -2.214571e+01 -4.495756e+00 1.400000e+01
    endloop
  endfacet
  facet normal 0.000000e+00 0.000000e+00 1.000000e+00
    outer loop
      vertex -5.617554e+00 -4.472712e+00 1.400000e+01
      vertex -4.185026e+00 -2.675615e+00 1.400000e+01
      vertex -2.214571e+01 -4.495756e+00 1.400000e+01
    endloop
  endfacet
  facet normal 0.000000e+00 0.000000e+00 1.000000e+00
    outer loop
      vertex 3.231757e+01 3.948355e+00 1.400000e+01
      vertex 3.384136e+01 3.691793e+00 1.400000e+01
      vertex 3.234899e+01 4.197046e+00 1.400000e+01
    endloop
  endfacet
  facet normal 0.000000e+00 0.000000e+00 1.000000e+00
    outer loop
      vertex -1.616390e+01 -7.737368e+00 1.400000e+01
      vertex -9.394889e+00 -7.051394e+00 1.400000e+01
      vertex -2.214571e+01 -4.495756e+00 1.400000e+01
    endloop
  endfacet
  facet normal 0.000000e+00 0.000000e+00 1.000000e+00
    outer loop
      vertex 3.384136e+01 3.691793e+00 1.400000e+01
      vertex 3.388888e+01 4.324156e+00 1.400000e+01
      vertex 3.234899e+01 4.197046e+00 1.400000e+01
    endloop
  endfacet
  facet normal 0.000000e+00 0.000000e+00 1.000000e+00
    outer loop
      vertex -9.394889e+00 -7.051394e+00 1.400000e+01
      vertex -5.617554e+00 -4.472712e+00 1.400000e+01
      vertex -2.214571e+01 -4.495756e+00 1.400000e+01
    endloop
  endfacet
  facet normal 0.000000e+00 0.000000e+00 1.000000e+00
    outer loop
      vertex -2.214571e+01 -4.495756e+00 1.400000e+01
      vertex -4.185026e+00 -2.675615e+00 1.400000e+01
      vertex -2.358325e+01 -2.702665e+00 1.400000e+01
    endloop
  endfacet
  facet normal 0.000000e+00 0.000000e+00 1.000000e+00
    outer loop
      vertex -3.223265e+01 -2.381182e+00 1.400000e+01
      vertex -2.895941e+01 9.367733e-01 1.400000e+01
      vertex -3.316274e+01 -1.084242e+00 1.400000e+01
    endloop
  endfacet
  facet normal 0.000000e+00 0.000000e+00 1.000000e+00
    outer loop
      vertex 3.165526e+01 1.672483e+00 1.400000e+01
      vertex 3.141178e+01 3.199018e+00 1.400000e+01
      vertex 3.116161e+01 3.214758e+00 1.400000e+01
    endloop
  endfacet
  facet normal 0.000000e+00 0.000000e+00 1.000000e+00
    outer loop
      vertex -2.895941e+01 9.367733e-01 1.400000e+01
      vertex -2.914055e+01 1.266264e+00 1.400000e+01
      vertex -3.316274e+01 -1.084242e+00 1.400000e+01
    endloop
  endfacet
  facet normal 0.000000e+00 0.000000e+00 1.000000e+00
    outer loop
      vertex 3.388888e+01 4.324156e+00 1.400000e+01
      vertex 3.377846e+01 4.948610e+00 1.400000e+01
      vertex 3.231757e+01 4.445734e+00 1.400000e+01
    endloop
  endfacet
  facet normal 0.000000e+00 0.000000e+00 1.000000e+00
    outer loop
      vertex 3.234899e+01 4.197046e+00 1.400000e+01
      vertex 3.388888e+01 4.324156e+00 1.400000e+01
      vertex 3.231757e+01 4.445734e+00 1.400000e+01
    endloop
  endfacet
  facet normal 0.000000e+00 0.000000e+00 1.000000e+00
    outer loop
      vertex -3.316274e+01 -1.084242e+00 1.400000e+01
      vertex -2.914055e+01 1.266264e+00 1.400000e+01
      vertex -3.372752e+01 4.084606e-01 1.400000e+01
    endloop
  endfacet
  facet normal 0.000000e+00 0.000000e+00 1.000000e+00
    outer loop
      vertex -2.914055e+01 1.266264e+00 1.400000e+01
      vertex -2.923406e+01 1.630453e+00 1.400000e+01
      vertex -3.372752e+01 4.084606e-01 1.400000e+01
    endloop
  endfacet
  facet normal 0.000000e+00 0.000000e+00 1.000000e+00
    outer loop
      vertex -2.643142e+01 2.541082e+00 1.400000e+01
      vertex -4.185026e+00 -2.675615e+00 1.400000e+01
      vertex -2.761855e+01 7.962702e+00 1.400000e+01
    endloop
  endfacet
  facet normal 0.000000e+00 0.000000e+00 1.000000e+00
    outer loop
      vertex 3.165526e+01 1.672483e+00 1.400000e+01
      vertex 3.116161e+01 3.214758e+00 1.400000e+01
      vertex 3.092321e+01 3.292219e+00 1.400000e+01
    endloop
  endfacet
  facet normal 0.000000e+00 0.000000e+00 1.000000e+00
    outer loop
      vertex -2.665243e+01 2.845274e+00 1.400000e+01
      vertex -2.643142e+01 2.541082e+00 1.400000e+01
      vertex -2.761855e+01 7.962702e+00 1.400000e+01
    endloop
  endfacet
  facet normal 0.000000e+00 0.000000e+00 1.000000e+00
    outer loop
      vertex -2.694214e+01 3.084944e+00 1.400000e+01
      vertex -2.665243e+01 2.845274e+00 1.400000e+01
      vertex -2.761855e+01 7.962702e+00 1.400000e+01
    endloop
  endfacet
  facet normal 0.000000e+00 0.000000e+00 1.000000e+00
    outer loop
      vertex -2.728236e+01 3.245035e+00 1.400000e+01
      vertex -2.694214e+01 3.084944e+00 1.400000e+01
      vertex -2.761855e+01 7.962702e+00 1.400000e+01
    endloop
  endfacet
  facet normal 0.000000e+00 0.000000e+00 1.000000e+00
    outer loop
      vertex 3.377846e+01 4.948610e+00 1.400000e+01
      vertex 3.351698e+01 5.526335e+00 1.400000e+01
      vertex 3.222529e+01 4.678797e+00 1.400000e+01
    endloop
  endfacet
  facet normal 0.000000e+00 0.000000e+00 1.000000e+00
    outer loop
      vertex -2.765170e+01 3.315493e+00 1.400000e+01
      vertex -2.728236e+01 3.245035e+00 1.400000e+01
      vertex -2.761855e+01 7.962702e+00 1.400000e+01
    endloop
  endfacet
  facet normal 0.000000e+00 0.000000e+00 1.000000e+00
    outer loop
      vertex -2.802696e+01 3.291883e+00 1.400000e+01
      vertex -2.765170e+01 3.315493e+00 1.400000e+01
      vertex -2.761855e+01 7.962702e+00 1.400000e+01
    endloop
  endfacet
  facet normal 0.000000e+00 0.000000e+00 1.000000e+00
    outer loop
      vertex 3.231757e+01 4.445734e+00 1.400000e+01
      vertex 3.377846e+01 4.948610e+00 1.400000e+01
      vertex 3.222529e+01 4.678797e+00 1.400000e+01
    endloop
  endfacet
  facet normal 0.000000e+00 0.000000e+00 1.000000e+00
    outer loop
      vertex 3.165526e+01 1.672483e+00 1.400000e+01
      vertex 3.092321e+01 3.292219e+00 1.400000e+01
      vertex 3.071157e+01 3.426531e+00 1.400000e+01
    endloop
  endfacet
  facet normal 0.000000e+00 0.000000e+00 1.000000e+00
    outer loop
      vertex -2.923406e+01 1.630453e+00 1.400000e+01
      vertex -2.923406e+01 2.006453e+00 1.400000e+01
      vertex -3.388888e+01 1.996256e+00 1.400000e+01
    endloop
  endfacet
  facet normal 0.000000e+00 0.000000e+00 1.000000e+00
    outer loop
      vertex -3.372752e+01 4.084606e-01 1.400000e+01
      vertex -2.923406e+01 1.630453e+00 1.400000e+01
      vertex -3.388888e+01 1.996256e+00 1.400000e+01
    endloop
  endfacet
  facet normal 0.000000e+00 0.000000e+00 1.000000e+00
    outer loop
      vertex -2.488779e+01 -3.622072e+00 1.400000e+01
      vertex -2.358325e+01 -2.702665e+00 1.400000e+01
      vertex -2.694214e+01 5.519619e-01 1.400000e+01
    endloop
  endfacet
  facet normal 0.000000e+00 0.000000e+00 1.000000e+00
    outer loop
      vertex -2.358325e+01 -2.702665e+00 1.400000e+01
      vertex -2.665243e+01 7.916317e-01 1.400000e+01
      vertex -2.694214e+01 5.519619e-01 1.400000e+01
    endloop
  endfacet
  facet normal 0.000000e+00 0.000000e+00 1.000000e+00
    outer loop
      vertex 3.222529e+01 4.678797e+00 1.400000e+01
      vertex 3.351698e+01 5.526335e+00 1.400000e+01
      vertex 3.207796e+01 4.881590e+00 1.400000e+01
    endloop
  endfacet
  facet normal 0.000000e+00 0.000000e+00 1.000000e+00
    outer loop
      vertex -2.802696e+01 3.291883e+00 1.400000e+01
      vertex -2.761855e+01 7.962702e+00 1.400000e+01
      vertex -2.920497e+01 7.788301e+00 1.400000e+01
    endloop
  endfacet
  facet normal 0.000000e+00 0.000000e+00 1.000000e+00
    outer loop
      vertex 3.207796e+01 4.881590e+00 1.400000e+01
      vertex 3.351698e+01 5.526335e+00 1.400000e+01
      vertex 3.312069e+01 6.021402e+00 1.400000e+01
    endloop
  endfacet
  facet normal 0.000000e+00 0.000000e+00 1.000000e+00
    outer loop
      vertex -2.838455e+01 3.175692e+00 1.400000e+01
      vertex -2.802696e+01 3.291883e+00 1.400000e+01
      vertex -2.920497e+01 7.788301e+00 1.400000e+01
    endloop
  endfacet
  facet normal 0.000000e+00 0.000000e+00 1.000000e+00
    outer loop
      vertex -2.665243e+01 7.916317e-01 1.400000e+01
      vertex -2.358325e+01 -2.702665e+00 1.400000e+01
      vertex -2.643142e+01 1.095823e+00 1.400000e+01
    endloop
  endfacet
  facet normal 0.000000e+00 0.000000e+00 1.000000e+00
    outer loop
      vertex 3.165526e+01 1.672483e+00 1.400000e+01
      vertex 3.071157e+01 3.426531e+00 1.400000e+01
      vertex 3.053997e+01 3.609259e+00 1.400000e+01
    endloop
  endfacet
  facet normal 0.000000e+00 0.000000e+00 1.000000e+00
    outer loop
      vertex -2.923406e+01 2.006453e+00 1.400000e+01
      vertex -2.914055e+01 2.370638e+00 1.400000e+01
      vertex -3.363595e+01 3.572058e+00 1.400000e+01
    endloop
  endfacet
  facet normal 0.000000e+00 0.000000e+00 1.000000e+00
    outer loop
      vertex -3.388888e+01 1.996256e+00 1.400000e+01
      vertex -2.923406e+01 2.006453e+00 1.400000e+01
      vertex -3.363595e+01 3.572058e+00 1.400000e+01
    endloop
  endfacet
  facet normal 0.000000e+00 0.000000e+00 1.000000e+00
    outer loop
      vertex 3.207796e+01 4.881590e+00 1.400000e+01
      vertex 3.312069e+01 6.021402e+00 1.400000e+01
      vertex 3.188481e+01 5.041372e+00 1.400000e+01
    endloop
  endfacet
  facet normal 0.000000e+00 0.000000e+00 1.000000e+00
    outer loop
      vertex -2.638508e+01 -4.174562e+00 1.400000e+01
      vertex -2.488779e+01 -3.622072e+00 1.400000e+01
      vertex -2.728236e+01 3.918667e-01 1.400000e+01
    endloop
  endfacet
  facet normal 0.000000e+00 0.000000e+00 1.000000e+00
    outer loop
      vertex -2.870202e+01 2.974222e+00 1.400000e+01
      vertex -2.838455e+01 3.175692e+00 1.400000e+01
      vertex -3.069298e+01 7.211287e+00 1.400000e+01
    endloop
  endfacet
  facet normal 0.000000e+00 0.000000e+00 1.000000e+00
    outer loop
      vertex -2.838455e+01 3.175692e+00 1.400000e+01
      vertex -2.920497e+01 7.788301e+00 1.400000e+01
      vertex -3.069298e+01 7.211287e+00 1.400000e+01
    endloop
  endfacet
  facet normal 0.000000e+00 0.000000e+00 1.000000e+00
    outer loop
      vertex -2.488779e+01 -3.622072e+00 1.400000e+01
      vertex -2.694214e+01 5.519619e-01 1.400000e+01
      vertex -2.728236e+01 3.918667e-01 1.400000e+01
    endloop
  endfacet
  facet normal 0.000000e+00 0.000000e+00 1.000000e+00
    outer loop
      vertex -2.643142e+01 1.095823e+00 1.400000e+01
      vertex -2.358325e+01 -2.702665e+00 1.400000e+01
      vertex -2.629301e+01 1.445417e+00 1.400000e+01
    endloop
  endfacet
  facet normal 0.000000e+00 0.000000e+00 1.000000e+00
    outer loop
      vertex -3.363595e+01 3.572058e+00 1.400000e+01
      vertex -2.914055e+01 2.370638e+00 1.400000e+01
      vertex -3.298579e+01 5.029596e+00 1.400000e+01
    endloop
  endfacet
  facet normal 0.000000e+00 0.000000e+00 1.000000e+00
    outer loop
      vertex -2.914055e+01 2.370638e+00 1.400000e+01
      vertex -2.895941e+01 2.700129e+00 1.400000e+01
      vertex -3.298579e+01 5.029596e+00 1.400000e+01
    endloop
  endfacet
  facet normal 0.000000e+00 0.000000e+00 1.000000e+00
    outer loop
      vertex -3.298579e+01 5.029596e+00 1.400000e+01
      vertex -2.895941e+01 2.700129e+00 1.400000e+01
      vertex -3.198223e+01 6.270571e+00 1.400000e+01
    endloop
  endfacet
  facet normal 0.000000e+00 0.000000e+00 1.000000e+00
    outer loop
      vertex -2.895941e+01 2.700129e+00 1.400000e+01
      vertex -2.870202e+01 2.974222e+00 1.400000e+01
      vertex -3.198223e+01 6.270571e+00 1.400000e+01
    endloop
  endfacet
  facet normal 0.000000e+00 0.000000e+00 1.000000e+00
    outer loop
      vertex -2.870202e+01 2.974222e+00 1.400000e+01
      vertex -3.069298e+01 7.211287e+00 1.400000e+01
      vertex -3.198223e+01 6.270571e+00 1.400000e+01
    endloop
  endfacet
  facet normal 0.000000e+00 0.000000e+00 1.000000e+00
    outer loop
      vertex -2.797414e+01 -4.322878e+00 1.400000e+01
      vertex -2.638508e+01 -4.174562e+00 1.400000e+01
      vertex -2.765170e+01 3.214130e-01 1.400000e+01
    endloop
  endfacet
  facet normal 0.000000e+00 0.000000e+00 1.000000e+00
    outer loop
      vertex -2.638508e+01 -4.174562e+00 1.400000e+01
      vertex -2.728236e+01 3.918667e-01 1.400000e+01
      vertex -2.765170e+01 3.214130e-01 1.400000e+01
    endloop
  endfacet
  facet normal 0.000000e+00 0.000000e+00 1.000000e+00
    outer loop
      vertex -4.185026e+00 -2.675615e+00 1.400000e+01
      vertex 3.165526e+01 1.672483e+00 1.400000e+01
      vertex -9.536743e-07 1.907349e-06 1.400000e+01
    endloop
  endfacet
  facet normal 0.000000e+00 0.000000e+00 1.000000e+00
    outer loop
      vertex 3.188481e+01 5.041372e+00 1.400000e+01
      vertex 3.312069e+01 6.021402e+00 1.400000e+01
      vertex 3.261423e+01 6.403028e+00 1.400000e+01
    endloop
  endfacet
  facet normal 0.000000e+00 0.000000e+00 1.000000e+00
    outer loop
      vertex 3.165526e+01 1.672483e+00 1.400000e+01
      vertex 3.053997e+01 3.609259e+00 1.400000e+01
      vertex -9.536743e-07 1.907349e-06 1.400000e+01
    endloop
  endfacet
  facet normal 0.000000e+00 0.000000e+00 1.000000e+00
    outer loop
      vertex -2.761855e+01 7.962702e+00 1.400000e+01
      vertex -4.185026e+00 -2.675615e+00 1.400000e+01
      vertex -9.536743e-07 1.907349e-06 1.400000e+01
    endloop
  endfacet
  facet normal 0.000000e+00 0.000000e+00 1.000000e+00
    outer loop
      vertex 3.165801e+01 5.148100e+00 1.400000e+01
      vertex 3.188481e+01 5.041372e+00 1.400000e+01
      vertex 3.261423e+01 6.403028e+00 1.400000e+01
    endloop
  endfacet
  facet normal 0.000000e+00 0.000000e+00 1.000000e+00
    outer loop
      vertex 3.140168e+01 6.739569e+00 1.400000e+01
      vertex -2.761855e+01 7.962702e+00 1.400000e+01
      vertex -9.536743e-07 1.907349e-06 1.400000e+01
    endloop
  endfacet
  facet normal 0.000000e+00 0.000000e+00 1.000000e+00
    outer loop
      vertex 3.041921e+01 4.565168e+00 1.400000e+01
      vertex 3.140168e+01 6.739569e+00 1.400000e+01
      vertex -9.536743e-07 1.907349e-06 1.400000e+01
    endloop
  endfacet
  facet normal 0.000000e+00 0.000000e+00 1.000000e+00
    outer loop
      vertex 3.035687e+01 4.322378e+00 1.400000e+01
      vertex 3.041921e+01 4.565168e+00 1.400000e+01
      vertex -9.536743e-07 1.907349e-06 1.400000e+01
    endloop
  endfacet
  facet normal 0.000000e+00 0.000000e+00 1.000000e+00
    outer loop
      vertex -2.629301e+01 1.445417e+00 1.400000e+01
      vertex -2.358325e+01 -2.702665e+00 1.400000e+01
      vertex -2.624588e+01 1.818453e+00 1.400000e+01
    endloop
  endfacet
  facet normal 0.000000e+00 0.000000e+00 1.000000e+00
    outer loop
      vertex 3.035687e+01 4.071711e+00 1.400000e+01
      vertex 3.035687e+01 4.322378e+00 1.400000e+01
      vertex -9.536743e-07 1.907349e-06 1.400000e+01
    endloop
  endfacet
  facet normal 0.000000e+00 0.000000e+00 1.000000e+00
    outer loop
      vertex 3.041921e+01 3.828920e+00 1.400000e+01
      vertex 3.035687e+01 4.071711e+00 1.400000e+01
      vertex -9.536743e-07 1.907349e-06 1.400000e+01
    endloop
  endfacet
  facet normal 0.000000e+00 0.000000e+00 1.000000e+00
    outer loop
      vertex 3.053997e+01 3.609259e+00 1.400000e+01
      vertex 3.041921e+01 3.828920e+00 1.400000e+01
      vertex -9.536743e-07 1.907349e-06 1.400000e+01
    endloop
  endfacet
  facet normal 0.000000e+00 0.000000e+00 1.000000e+00
    outer loop
      vertex -2.797414e+01 -4.322878e+00 1.400000e+01
      vertex -2.765170e+01 3.214130e-01 1.400000e+01
      vertex -2.802696e+01 3.450222e-01 1.400000e+01
    endloop
  endfacet
  facet normal 0.000000e+00 0.000000e+00 1.000000e+00
    outer loop
      vertex -2.954782e+01 -4.057009e+00 1.400000e+01
      vertex -2.797414e+01 -4.322878e+00 1.400000e+01
      vertex -2.802696e+01 3.450222e-01 1.400000e+01
    endloop
  endfacet
  facet normal 0.000000e+00 0.000000e+00 1.000000e+00
    outer loop
      vertex -2.624588e+01 1.818453e+00 1.400000e+01
      vertex -2.358325e+01 -2.702665e+00 1.400000e+01
      vertex -2.629301e+01 2.191488e+00 1.400000e+01
    endloop
  endfacet
  facet normal 0.000000e+00 0.000000e+00 1.000000e+00
    outer loop
      vertex -2.358325e+01 -2.702665e+00 1.400000e+01
      vertex -4.185026e+00 -2.675615e+00 1.400000e+01
      vertex -2.629301e+01 2.191488e+00 1.400000e+01
    endloop
  endfacet
  facet normal 0.000000e+00 0.000000e+00 1.000000e+00
    outer loop
      vertex -2.954782e+01 -4.057009e+00 1.400000e+01
      vertex -2.802696e+01 3.450222e-01 1.400000e+01
      vertex -2.838455e+01 4.612103e-01 1.400000e+01
    endloop
  endfacet
  facet normal 0.000000e+00 0.000000e+00 1.000000e+00
    outer loop
      vertex -3.099996e+01 -3.394896e+00 1.400000e+01
      vertex -2.954782e+01 -4.057009e+00 1.400000e+01
      vertex -2.838455e+01 4.612103e-01 1.400000e+01
    endloop
  endfacet
endsolid Default
